<?xml version="1.0" encoding="UTF-8" ?>
<!DOCTYPE svg PUBLIC "-//W3C//DTD SVG 1.1//EN" "http://www.w3.org/Graphics/SVG/1.1/DTD/svg11.dtd">
<svg width="847pt" height="376pt" viewBox="0 0 847 376" version="1.1" xmlns="http://www.w3.org/2000/svg">
<g id="#ffffffff">
<path fill="#ffffff" opacity="1.00" d=" M 0.00 0.00 L 0.07 0.00 C 0.05 0.02 0.02 0.05 0.00 0.07 L 0.00 0.00 Z" />
<path fill="#ffffff" opacity="1.00" d=" M 648.84 103.92 C 650.32 102.43 651.89 100.82 654.22 101.32 C 654.54 102.66 655.02 104.52 656.82 104.32 C 668.21 104.48 679.64 104.09 691.03 104.40 C 692.93 104.33 693.90 106.47 695.77 106.61 C 699.12 107.24 702.59 106.57 705.99 106.94 C 714.65 107.75 723.43 106.69 732.02 108.32 C 735.91 108.81 739.79 109.50 743.72 109.51 L 743.74 109.76 C 734.44 109.39 725.30 106.79 715.94 107.49 C 709.06 108.20 701.63 105.11 695.15 108.21 C 696.18 109.87 698.22 110.72 700.17 110.30 C 704.60 109.86 709.04 110.20 713.46 110.60 C 714.77 110.55 715.52 111.77 716.42 112.53 C 714.03 112.58 711.64 112.43 709.30 112.00 C 704.28 111.07 699.16 110.84 694.08 110.53 C 693.14 110.29 691.70 110.13 691.32 109.14 C 691.81 108.11 694.21 108.21 693.59 106.69 C 693.47 104.93 691.57 104.36 690.09 104.41 C 678.38 104.26 666.66 104.41 654.96 104.57 C 654.62 104.00 653.96 102.84 653.62 102.27 C 652.17 101.42 650.98 103.17 649.92 103.89 C 648.15 105.88 645.37 105.43 643.01 105.67 C 638.61 105.82 634.25 106.50 629.88 106.92 C 635.99 104.70 642.94 106.97 648.84 103.92 Z" />
<path fill="#ffffff" opacity="1.00" d=" M 668.42 113.13 C 676.13 112.33 683.88 112.74 691.61 112.74 C 691.63 113.12 691.66 113.88 691.68 114.26 C 683.91 114.11 676.04 115.02 668.42 113.13 Z" />
<path fill="#ffffff" opacity="1.00" d=" M 619.93 115.38 C 625.92 114.21 632.02 113.59 638.12 113.22 C 636.91 114.30 635.76 115.44 634.48 116.42 C 627.60 118.23 620.43 118.32 613.38 118.79 C 610.49 121.50 606.34 121.11 602.75 121.93 C 599.66 122.66 596.48 122.41 593.35 122.47 C 593.33 122.26 593.30 121.84 593.28 121.63 C 597.06 121.77 600.47 120.02 604.11 119.34 C 609.14 117.18 614.46 115.80 619.93 115.38 Z" />
<path fill="#ffffff" opacity="1.00" d=" M 719.80 114.94 C 723.29 113.63 727.23 114.29 730.58 115.69 C 734.34 115.80 738.22 114.91 741.84 116.32 C 742.36 116.60 743.39 117.16 743.90 117.43 C 747.17 117.51 750.43 117.66 753.70 117.76 C 750.32 118.09 746.86 118.55 743.52 117.74 C 735.69 116.12 727.58 116.86 719.80 114.94 Z" />
<path fill="#ffffff" opacity="1.00" d=" M 684.50 122.79 C 687.12 122.39 689.81 122.54 692.39 123.14 C 689.97 124.75 686.88 124.14 684.50 122.79 Z" />
<path fill="#ffffff" opacity="1.00" d=" M 695.69 124.85 C 697.17 124.56 698.76 124.06 700.23 124.76 C 702.94 126.07 706.63 124.79 708.63 127.53 C 710.30 127.59 711.99 127.67 713.68 127.76 C 711.35 128.07 708.65 128.85 706.87 126.79 C 703.01 127.04 699.41 125.56 695.69 124.85 Z" />
<path fill="#ffffff" opacity="1.00" d=" M 559.91 131.80 C 563.53 130.92 567.00 129.56 570.55 128.48 C 570.91 129.01 571.63 130.06 571.99 130.58 C 577.10 129.95 582.16 128.86 587.29 128.37 C 585.10 131.06 580.92 130.35 577.89 131.68 C 574.66 132.93 571.24 133.64 568.09 135.11 C 567.56 135.20 566.48 135.38 565.95 135.48 C 564.04 136.34 562.07 137.04 560.13 137.79 C 557.87 140.74 553.91 140.97 550.67 142.14 C 544.75 143.80 538.90 145.69 533.13 147.78 C 532.09 148.43 531.18 149.23 530.31 150.07 L 531.22 148.47 L 528.80 147.69 C 531.45 147.68 533.78 146.36 536.02 145.11 C 545.40 141.18 555.06 137.90 564.91 135.38 C 567.62 134.73 570.19 133.64 572.29 131.74 C 569.70 130.92 567.01 131.47 564.44 132.01 C 563.00 132.72 561.38 132.59 559.84 132.58 C 558.96 132.92 558.10 133.26 557.23 133.58 C 558.12 132.99 559.02 132.40 559.91 131.80 Z" />
<path fill="#ffffff" opacity="1.00" d=" M 607.77 129.77 C 607.83 129.45 607.97 128.80 608.04 128.47 C 608.08 129.04 608.12 129.61 608.18 130.18 C 606.30 130.43 604.43 130.68 602.56 130.86 C 603.37 129.15 606.26 130.36 607.77 129.77 Z" />
<path fill="#ffffff" opacity="1.00" d=" M 748.03 128.58 C 749.16 128.62 750.31 128.67 751.46 128.72 C 750.03 130.93 748.54 133.11 746.97 135.23 C 745.21 134.40 743.43 133.62 741.78 132.61 C 740.61 132.56 739.45 132.51 738.31 132.47 C 738.30 132.18 738.29 131.60 738.29 131.32 C 740.97 131.31 743.50 132.36 746.14 132.60 C 746.81 131.28 747.44 129.94 748.03 128.58 Z" />
<path fill="#ffffff" opacity="1.00" d=" M 640.86 132.78 C 641.74 132.75 642.62 132.72 643.52 132.70 C 643.51 133.99 643.49 135.29 643.49 136.58 C 642.60 136.51 641.72 136.43 640.85 136.35 C 640.85 135.16 640.84 133.97 640.86 132.78 Z" />
<path fill="#ffffff" opacity="1.00" d=" M 628.19 134.46 C 628.78 134.45 629.96 134.41 630.55 134.39 C 632.27 137.68 632.65 141.32 631.98 144.95 C 631.70 141.14 630.80 137.38 628.19 134.46 Z" />
<path fill="#ffffff" opacity="1.00" d=" M 647.93 134.20 C 649.46 134.58 648.94 137.33 648.50 138.51 C 647.06 138.19 647.19 135.28 647.93 134.20 Z" />
<path fill="#ffffff" opacity="1.00" d=" M 390.09 161.05 C 388.69 155.07 388.03 148.92 385.65 143.21 C 386.64 145.19 387.60 147.19 388.71 149.10 C 390.96 152.40 390.83 156.55 391.83 160.29 C 393.02 166.53 395.66 172.60 395.16 179.07 C 394.81 184.35 395.16 189.80 393.77 194.95 C 393.45 197.24 394.30 200.14 392.34 201.88 C 392.24 204.49 392.42 207.10 392.31 209.72 C 392.91 210.61 393.53 211.49 394.17 212.37 C 394.75 210.44 395.27 208.51 395.69 206.54 L 396.63 206.72 C 396.37 203.74 396.83 200.80 398.52 198.29 C 397.03 201.18 398.01 204.55 396.75 207.50 C 396.64 210.99 395.77 214.41 394.02 217.44 C 393.87 217.90 393.56 218.82 393.41 219.27 C 391.69 222.76 390.55 226.48 389.54 230.22 C 389.31 231.50 389.10 232.79 388.84 234.07 C 388.63 232.35 388.62 230.60 389.59 229.09 C 390.06 225.80 390.99 222.61 392.12 219.50 C 392.45 218.30 392.74 217.07 393.45 216.02 C 394.22 213.94 393.36 212.23 391.92 210.76 C 390.18 214.89 389.07 219.21 388.30 223.61 C 386.20 221.59 388.87 219.31 389.05 217.13 C 390.77 208.98 392.20 200.75 393.08 192.49 C 394.50 186.70 393.33 180.66 393.43 174.78 C 389.73 171.16 390.99 165.67 390.09 161.05 Z" />
<path fill="#ffffff" opacity="1.00" d=" M 641.45 158.05 C 641.68 163.68 642.95 169.58 641.25 175.07 C 640.74 169.44 640.36 163.62 641.45 158.05 Z" />
<path fill="#ffffff" opacity="1.00" d=" M 471.28 179.93 C 473.62 177.22 476.35 173.98 480.33 174.28 C 477.68 176.71 474.42 178.26 471.28 179.93 Z" />
<path fill="#ffffff" opacity="1.00" d=" M 633.32 227.41 C 633.57 226.08 633.83 224.74 634.09 223.41 C 634.75 223.47 635.43 223.53 636.12 223.60 C 634.57 227.56 634.23 231.86 632.83 235.88 C 632.35 238.02 631.08 239.83 629.89 241.63 C 631.42 236.99 631.65 232.02 633.32 227.41 Z" />
<path fill="#ffffff" opacity="1.00" d=" M 540.78 244.66 C 543.23 239.59 548.01 236.21 552.56 233.15 C 549.11 236.69 545.66 240.26 543.09 244.51 C 542.51 244.55 541.36 244.62 540.78 244.66 Z" />
<path fill="#ffffff" opacity="1.00" d=" M 764.28 255.91 C 764.56 255.38 765.10 254.33 765.38 253.81 C 765.28 254.85 764.92 255.82 764.61 256.81 C 762.71 260.84 760.64 264.78 758.33 268.59 C 757.77 268.53 756.65 268.42 756.08 268.37 C 758.56 264.05 761.62 260.11 764.28 255.91 Z" />
<path fill="#ffffff" opacity="1.00" d=" M 649.93 282.13 C 648.35 274.99 649.40 267.69 651.31 260.73 C 651.68 262.98 651.62 265.27 651.59 267.55 L 650.51 267.44 C 650.72 272.34 650.62 277.27 649.93 282.13 Z" />
<path fill="#ffffff" opacity="1.00" d=" M 656.31 263.18 C 656.69 263.19 657.45 263.21 657.83 263.21 C 657.68 266.75 657.49 270.28 657.12 273.80 C 656.54 272.91 655.96 272.02 655.40 271.13 C 655.67 268.48 656.02 265.83 656.31 263.18 Z" />
<path fill="#ffffff" opacity="1.00" d=" M 529.38 267.13 C 529.82 266.05 530.32 265.01 530.71 263.92 C 531.11 268.98 529.39 273.82 528.99 278.81 C 528.84 275.70 529.20 271.55 525.21 270.91 C 526.96 270.08 528.38 268.79 529.38 267.13 Z" />
<path fill="#ffffff" opacity="1.00" d=" M 428.49 274.36 C 428.66 273.30 428.83 272.24 429.00 271.19 C 430.12 274.09 430.86 277.10 431.43 280.15 C 431.75 280.26 432.39 280.47 432.71 280.57 C 432.03 280.64 431.35 280.72 430.68 280.81 C 430.35 278.68 429.91 276.56 429.54 274.44 L 428.49 274.36 Z" />
<path fill="#ffffff" opacity="1.00" d=" M 534.66 279.67 C 535.11 281.42 535.37 283.21 535.70 284.99 C 536.04 285.79 536.39 286.60 536.74 287.41 C 536.18 287.35 535.05 287.24 534.49 287.18 C 533.77 284.70 533.94 282.13 534.66 279.67 Z" />
<path fill="#ffffff" opacity="1.00" d=" M 531.16 288.28 C 531.63 288.41 532.56 288.66 533.03 288.79 C 533.55 290.09 534.10 291.38 534.65 292.67 C 534.17 292.64 533.22 292.59 532.74 292.56 C 532.22 291.13 531.67 289.71 531.16 288.28 Z" />
<path fill="#ffffff" opacity="1.00" d=" M 657.12 294.84 C 657.94 294.61 658.77 294.39 659.60 294.18 C 661.07 296.68 662.58 299.15 663.88 301.75 C 661.36 299.71 659.18 297.31 657.12 294.84 Z" />
<path fill="#ffffff" opacity="1.00" d=" M 754.46 296.58 C 754.88 296.63 755.71 296.73 756.12 296.78 C 757.44 299.99 759.25 302.96 760.72 306.11 C 757.54 303.94 754.28 300.71 754.46 296.58 Z" />
<path fill="#ffffff" opacity="1.00" d=" M 440.87 297.32 C 442.82 298.68 444.60 300.25 446.16 302.04 C 446.72 302.81 447.30 303.57 447.88 304.34 C 446.68 303.44 445.46 302.58 444.25 301.71 C 443.05 300.91 441.87 300.07 440.70 299.24 C 440.75 298.76 440.83 297.80 440.87 297.32 Z" />
</g>
<g id="#f3df62ff">
<path fill="#f3df62" opacity="1.00" d=" M 84.32 9.50 C 98.12 3.89 112.93 1.39 127.72 0.31 C 146.34 -0.22 165.18 1.90 182.73 8.42 C 192.98 12.24 203.21 16.70 211.93 23.43 C 206.65 24.47 201.81 21.54 196.61 21.20 C 189.57 19.28 182.26 19.76 175.05 19.36 C 159.24 19.25 143.50 22.38 128.69 27.85 C 126.65 28.76 124.55 29.51 122.50 30.37 C 98.23 41.39 76.43 59.83 65.51 84.57 C 63.58 89.90 61.22 95.15 60.63 100.85 C 60.17 104.92 56.41 107.19 53.69 109.75 C 51.13 112.51 48.95 115.58 46.81 118.66 C 41.62 126.94 38.54 136.48 38.23 146.27 C 37.52 148.73 37.75 151.30 38.27 153.78 C 38.97 161.91 40.46 170.23 44.45 177.45 C 48.43 186.23 54.55 194.00 61.89 200.22 C 75.13 211.82 91.97 218.51 109.05 222.07 C 118.04 223.18 127.08 224.47 136.16 224.15 C 142.63 223.24 149.23 223.47 155.61 221.84 C 160.23 221.46 164.56 219.05 169.25 219.56 C 164.67 225.14 158.00 228.53 151.73 231.87 C 150.68 232.39 149.62 232.90 148.58 233.43 C 142.33 236.25 135.61 237.80 128.90 239.04 C 121.70 240.42 114.31 239.62 107.03 239.78 C 78.98 237.84 52.21 224.32 32.93 204.02 C 30.89 201.46 28.83 198.92 26.57 196.56 C 24.00 192.49 20.96 188.75 18.56 184.57 C 10.13 170.41 5.16 154.35 3.33 138.02 C 3.11 128.36 3.07 118.70 3.32 109.04 C 4.38 98.13 6.96 87.34 11.10 77.19 C 16.57 64.20 24.39 52.20 34.13 42.03 C 39.28 36.44 45.22 31.57 51.34 27.08 C 54.94 24.41 58.75 22.05 62.49 19.57 C 69.64 15.96 76.61 11.85 84.32 9.50 Z" />
</g>
<g id="#0a281fff">
<path fill="#0a281f" opacity="1.00" d=" M 710.02 33.03 C 710.76 33.03 712.23 33.02 712.97 33.01 C 712.95 36.56 712.96 40.10 712.95 43.65 C 715.73 40.24 721.81 40.06 723.50 44.61 C 724.51 49.31 723.73 54.21 723.96 59.00 C 723.22 58.99 721.75 58.97 721.02 58.96 C 720.85 54.51 721.59 49.92 720.48 45.55 C 718.86 42.24 713.67 43.65 713.14 47.01 C 712.71 50.99 713.04 55.00 712.96 59.00 C 712.23 58.99 710.77 58.98 710.03 58.98 C 710.03 50.33 710.05 41.68 710.02 33.03 Z" />
<path fill="#0a281f" opacity="1.00" d=" M 452.18 34.05 C 454.67 33.12 456.08 36.88 453.69 37.83 C 451.30 38.66 450.04 35.22 452.18 34.05 Z" />
<path fill="#0a281f" opacity="1.00" d=" M 570.29 34.10 C 572.73 33.07 574.05 37.02 571.67 37.81 C 569.36 38.81 567.93 34.98 570.29 34.10 Z" />
<path fill="#0a281f" opacity="1.00" d=" M 606.64 37.35 C 604.70 35.23 607.83 33.41 609.81 34.18 C 610.43 36.15 608.74 39.40 606.64 37.35 Z" />
<path fill="#0a281f" opacity="1.00" d=" M 689.29 34.12 C 691.71 33.01 693.06 37.08 690.64 37.79 C 688.49 38.89 686.85 34.96 689.29 34.12 Z" />
<path fill="#0a281f" opacity="1.00" d=" M 595.23 37.53 C 595.99 37.40 597.51 37.14 598.27 37.01 C 598.20 38.33 598.13 39.65 598.07 40.97 C 599.78 41.13 604.46 40.24 602.40 43.45 C 600.90 43.45 599.42 43.42 597.94 43.35 C 597.89 47.64 597.91 51.98 598.81 56.20 C 600.05 56.25 601.29 56.30 602.53 56.35 C 602.53 56.98 602.51 58.23 602.50 58.85 C 600.03 58.95 596.48 59.33 595.54 56.34 C 594.51 52.14 595.22 47.74 595.06 43.46 C 594.37 43.47 593.00 43.48 592.31 43.49 C 592.28 42.90 592.22 41.73 592.19 41.15 C 592.88 41.11 594.26 41.02 594.95 40.98 C 595.03 39.83 595.12 38.68 595.23 37.53 Z" />
<path fill="#0a281f" opacity="1.00" d=" M 698.24 37.51 C 699.00 37.39 700.52 37.14 701.28 37.02 C 701.21 38.31 701.15 39.60 701.09 40.90 C 702.75 41.12 704.59 40.76 706.10 41.68 C 706.18 44.87 702.69 42.93 700.94 43.37 C 700.89 47.66 700.93 51.98 701.81 56.20 C 703.04 56.25 704.29 56.30 705.54 56.35 C 705.53 56.98 705.50 58.23 705.49 58.86 C 703.01 58.95 699.47 59.32 698.53 56.32 C 697.52 52.12 698.22 47.73 698.05 43.45 C 697.37 43.46 695.99 43.49 695.31 43.50 C 695.28 42.91 695.23 41.72 695.20 41.13 C 695.89 41.09 697.26 41.03 697.94 41.00 C 698.03 39.83 698.13 38.67 698.24 37.51 Z" />
<path fill="#0a281f" opacity="1.00" d=" M 452.04 40.99 C 452.78 41.00 454.25 41.03 454.98 41.05 C 454.94 47.02 454.96 53.00 454.97 58.97 C 454.24 58.98 452.77 58.99 452.04 59.00 C 452.04 52.99 452.03 46.99 452.04 40.99 Z" />
<path fill="#0a281f" opacity="1.00" d=" M 460.05 40.99 C 460.53 41.00 461.50 41.02 461.99 41.03 C 461.97 41.76 461.94 43.22 461.92 43.95 C 464.08 42.64 466.29 40.59 469.03 41.14 C 471.53 41.44 473.67 43.56 473.85 46.09 C 474.16 50.38 473.88 54.69 473.97 58.98 C 473.23 58.98 471.76 58.98 471.02 58.98 C 470.84 54.50 471.60 49.89 470.49 45.50 C 468.97 42.41 464.26 43.13 463.35 46.31 C 462.51 50.46 463.12 54.76 462.98 58.97 C 462.25 58.98 460.78 58.99 460.04 59.00 C 460.04 52.99 460.03 46.99 460.05 40.99 Z" />
<path fill="#0a281f" opacity="1.00" d=" M 487.31 42.81 C 490.83 39.91 498.42 40.10 499.58 45.47 C 500.36 50.04 499.85 54.72 499.91 59.33 C 498.49 59.03 497.20 58.49 496.99 56.88 C 494.78 58.33 492.07 59.64 489.39 58.64 C 486.33 57.72 484.97 53.56 487.06 51.07 C 489.64 48.22 493.81 48.33 497.32 47.83 C 496.88 45.26 495.02 42.58 492.03 43.54 C 490.48 43.21 487.11 45.81 487.31 42.81 M 489.23 53.07 C 488.44 56.36 492.68 57.58 494.93 55.96 C 497.39 54.95 496.92 52.02 497.19 49.88 C 494.55 50.53 490.39 50.02 489.23 53.07 Z" />
<path fill="#0a281f" opacity="1.00" d=" M 506.79 41.77 C 508.94 40.65 511.43 41.26 513.74 41.39 C 513.82 42.02 514.00 43.27 514.09 43.90 C 511.54 43.48 506.13 42.51 507.05 46.77 C 509.74 49.07 515.24 49.44 514.97 54.03 C 514.59 59.36 507.64 59.89 503.81 58.00 C 503.84 57.51 503.90 56.53 503.94 56.04 C 506.71 56.33 512.75 57.80 511.98 53.09 C 510.01 50.84 506.48 50.69 504.68 48.25 C 503.15 46.04 504.43 42.79 506.79 41.77 Z" />
<path fill="#0a281f" opacity="1.00" d=" M 520.78 41.78 C 522.92 40.66 525.38 41.25 527.68 41.35 C 527.79 41.99 528.00 43.26 528.11 43.90 C 525.53 43.47 520.06 42.51 521.07 46.83 C 523.07 48.30 525.52 48.97 527.52 50.43 C 529.61 52.22 529.32 55.72 527.37 57.49 C 524.64 59.42 520.87 59.38 517.92 57.98 C 517.88 57.41 517.80 56.26 517.76 55.68 C 520.48 56.60 526.84 57.79 525.95 53.05 C 523.97 50.83 520.45 50.69 518.67 48.22 C 517.15 46.03 518.44 42.79 520.78 41.78 Z" />
<path fill="#0a281f" opacity="1.00" d=" M 537.55 41.54 C 540.37 40.61 543.80 40.85 546.13 42.85 C 551.29 47.06 549.69 57.12 542.87 58.65 C 537.88 60.32 532.16 56.37 532.09 51.08 C 531.65 47.20 533.67 42.83 537.55 41.54 M 538.06 44.00 C 533.58 46.89 534.31 55.66 540.00 56.57 C 544.73 57.13 547.18 51.20 545.61 47.35 C 544.90 44.11 540.95 42.35 538.06 44.00 Z" />
<path fill="#0a281f" opacity="1.00" d=" M 555.37 42.27 C 558.13 40.55 561.51 41.11 564.56 41.51 C 564.55 42.07 564.54 43.18 564.54 43.73 C 562.35 43.68 560.10 43.15 557.97 43.81 C 552.92 45.76 552.91 54.32 557.99 56.25 C 560.16 56.90 562.44 56.25 564.66 56.15 C 564.60 57.73 563.59 58.90 561.95 58.82 C 559.20 59.22 556.09 58.99 553.95 57.03 C 549.51 53.26 550.20 45.08 555.37 42.27 Z" />
<path fill="#0a281f" opacity="1.00" d=" M 570.03 41.02 C 570.77 41.02 572.24 41.02 572.97 41.02 C 572.95 47.02 572.97 53.01 572.96 59.00 C 572.23 58.99 570.76 58.98 570.03 58.98 C 570.04 52.99 570.04 47.00 570.03 41.02 Z" />
<path fill="#0a281f" opacity="1.00" d=" M 577.77 44.26 C 575.87 42.35 578.94 41.75 580.16 41.37 C 583.48 40.50 588.17 40.95 589.37 44.79 C 590.53 49.53 589.78 54.50 589.91 59.33 C 588.49 59.05 587.24 58.48 586.97 56.91 C 584.76 58.34 582.06 59.63 579.41 58.65 C 576.34 57.74 574.97 53.58 577.05 51.09 C 579.61 48.21 583.80 48.33 587.31 47.84 C 586.67 46.44 586.56 44.51 584.98 43.78 C 582.61 42.90 580.15 44.06 577.77 44.26 M 579.18 54.05 C 579.40 57.14 583.69 57.25 585.55 55.56 C 587.48 54.34 586.85 51.78 587.18 49.88 C 584.43 50.50 579.17 50.06 579.18 54.05 Z" />
<path fill="#0a281f" opacity="1.00" d=" M 607.03 41.03 C 607.76 41.02 609.23 41.01 609.96 41.01 C 609.96 47.00 609.95 52.99 609.97 58.98 C 609.24 58.98 607.76 58.98 607.03 58.97 C 607.04 52.99 607.04 47.01 607.03 41.03 Z" />
<path fill="#0a281f" opacity="1.00" d=" M 619.55 41.54 C 625.13 39.19 631.84 43.91 631.13 50.02 C 631.68 56.27 624.45 60.99 618.90 58.24 C 612.09 55.37 612.57 43.90 619.55 41.54 M 620.08 44.00 C 615.60 46.86 616.30 55.64 621.97 56.56 C 626.75 57.15 629.19 51.16 627.62 47.30 C 626.85 44.10 622.96 42.36 620.08 44.00 Z" />
<path fill="#0a281f" opacity="1.00" d=" M 635.04 41.00 C 635.52 41.00 636.49 41.00 636.97 41.00 C 636.96 41.74 636.93 43.24 636.91 43.99 C 639.05 42.65 641.25 40.60 644.00 41.13 C 646.50 41.42 648.65 43.52 648.84 46.06 C 649.16 50.36 648.88 54.68 648.96 58.98 C 648.23 58.98 646.76 58.99 646.03 58.99 C 645.81 54.50 646.65 49.84 645.44 45.47 C 643.96 42.36 639.19 43.20 638.34 46.34 C 637.51 50.49 638.12 54.79 637.96 59.00 C 637.23 59.00 635.77 58.99 635.04 58.99 C 635.04 52.99 635.04 47.00 635.04 41.00 Z" />
<path fill="#0a281f" opacity="1.00" d=" M 660.87 41.00 C 661.65 41.01 663.21 41.03 663.99 41.05 C 665.22 45.95 666.57 50.83 667.40 55.82 C 669.23 50.97 670.47 45.92 672.09 41.00 C 672.76 41.02 674.10 41.07 674.77 41.10 C 676.10 45.77 677.73 50.39 678.36 55.23 C 678.70 55.23 679.38 55.22 679.72 55.22 C 680.00 50.31 681.61 45.65 682.93 40.95 C 683.68 40.99 685.20 41.07 685.95 41.11 C 684.06 47.00 682.19 52.90 680.49 58.85 C 679.47 58.86 678.46 58.88 677.46 58.89 C 676.04 54.13 674.52 49.39 673.35 44.56 C 672.00 49.42 670.50 54.23 668.85 59.00 C 668.15 58.99 666.75 58.99 666.05 58.99 C 664.28 53.01 662.48 47.03 660.87 41.00 Z" />
<path fill="#0a281f" opacity="1.00" d=" M 689.02 41.05 C 689.75 41.03 691.23 41.01 691.96 41.00 C 691.96 47.00 691.96 53.00 691.96 59.00 C 691.23 58.99 689.76 58.97 689.02 58.96 C 689.05 52.99 689.05 47.02 689.02 41.05 Z" />
<path fill="#0a281f" opacity="1.00" d=" M 121.85 80.99 C 125.39 82.21 128.22 84.78 131.55 86.43 C 132.86 86.98 132.71 88.66 133.18 89.78 C 134.60 91.70 136.08 93.58 137.58 95.44 C 138.08 94.80 139.09 93.51 139.60 92.87 C 139.07 91.80 138.53 90.73 138.01 89.66 C 139.46 89.18 140.91 88.70 142.37 88.24 C 143.07 90.81 144.25 93.20 145.90 95.29 C 147.48 95.22 149.05 95.01 150.63 94.87 C 153.04 95.57 155.55 95.36 158.01 95.14 C 157.83 98.22 156.80 101.36 154.57 103.56 C 152.51 103.37 150.44 102.97 148.37 103.39 C 143.73 104.13 139.51 101.43 135.05 100.85 C 134.11 102.06 133.36 103.40 132.50 104.67 C 127.93 103.62 124.04 100.60 119.30 100.02 C 119.10 98.19 120.42 95.04 117.97 94.34 C 114.65 94.53 111.32 94.73 108.00 94.86 C 105.12 94.98 102.67 96.71 99.92 97.33 C 98.09 97.30 96.28 97.01 94.48 96.78 C 93.43 99.32 90.64 100.17 89.02 102.20 C 88.81 103.40 88.65 104.61 88.53 105.83 C 83.71 108.20 80.31 112.43 78.13 117.26 C 77.94 119.52 79.36 121.74 78.75 124.02 C 78.16 126.56 77.52 129.10 77.86 131.73 C 80.30 133.75 82.60 136.01 84.06 138.86 C 86.53 140.74 89.01 142.63 91.74 144.13 C 94.05 143.17 96.55 143.03 99.03 143.12 C 102.53 143.34 105.50 140.63 109.03 141.10 C 110.94 140.74 111.37 142.83 112.24 144.02 C 114.10 144.09 115.96 144.15 117.82 144.24 C 118.00 147.11 117.51 149.95 117.07 152.78 C 120.57 156.40 123.18 160.84 123.69 165.94 C 124.72 169.36 121.50 171.92 121.12 175.17 C 120.21 177.63 122.29 179.70 123.24 181.80 C 125.80 185.51 125.02 190.55 127.96 194.07 C 129.75 196.31 130.63 199.03 131.20 201.80 C 131.75 204.04 134.26 203.02 135.83 202.87 C 139.34 202.14 143.46 202.94 146.35 200.36 C 149.59 197.46 152.68 193.94 153.49 189.54 C 154.71 188.73 156.10 188.09 157.00 186.90 C 157.12 184.91 156.28 183.01 156.10 181.05 C 158.06 178.18 161.57 177.08 164.09 174.82 C 165.06 171.28 164.52 167.45 163.43 163.98 C 162.97 161.80 161.84 159.34 163.30 157.27 C 165.44 153.58 168.34 150.29 171.81 147.80 C 176.68 144.26 179.92 138.62 180.94 132.73 C 177.47 133.61 174.00 134.74 170.39 134.80 C 169.33 134.05 169.19 132.76 168.92 131.61 C 174.06 130.36 179.20 128.70 183.61 125.67 C 186.97 124.70 189.80 122.55 191.75 119.67 C 192.33 118.55 193.93 117.55 193.32 116.14 C 191.46 114.81 188.96 114.06 188.36 111.54 C 186.66 113.50 182.00 115.73 180.86 112.28 C 179.37 110.68 177.74 109.22 176.43 107.47 C 176.38 106.84 176.29 105.59 176.25 104.97 C 178.59 104.78 180.49 105.69 181.31 107.98 C 183.38 109.28 185.68 110.12 188.07 110.60 C 188.29 110.32 188.73 109.76 188.95 109.48 C 191.76 113.16 196.92 112.19 200.96 112.16 C 207.54 118.53 213.23 126.20 215.70 135.14 C 219.29 148.75 217.86 163.78 211.15 176.21 C 203.85 190.10 190.90 200.09 176.87 206.57 C 155.53 215.92 131.31 217.97 108.54 213.36 C 89.27 209.20 70.15 199.94 58.06 183.90 C 45.80 168.24 42.64 145.48 51.52 127.48 C 55.10 119.89 61.32 114.05 67.42 108.47 C 73.77 103.31 80.70 98.90 87.83 94.89 C 91.48 92.68 95.46 96.35 99.24 94.73 C 102.12 94.36 102.84 91.32 104.38 89.40 C 106.30 87.86 108.20 86.31 109.67 84.31 C 112.44 86.23 115.15 83.09 117.81 83.50 C 120.86 86.83 124.90 88.89 128.89 90.89 C 129.19 86.06 121.53 86.21 121.85 80.99 Z" />
<path fill="#0a281f" opacity="1.00" d=" M 649.92 103.89 C 650.98 103.17 652.17 101.42 653.62 102.27 C 653.96 102.84 654.62 104.00 654.96 104.57 C 666.66 104.41 678.38 104.26 690.09 104.41 C 691.57 104.36 693.47 104.93 693.59 106.69 C 694.21 108.21 691.81 108.11 691.32 109.14 C 691.70 110.13 693.14 110.29 694.08 110.53 C 699.16 110.84 704.28 111.07 709.30 112.00 C 711.64 112.43 714.03 112.58 716.42 112.53 C 715.52 111.77 714.77 110.55 713.46 110.60 C 709.04 110.20 704.60 109.86 700.17 110.30 C 698.22 110.72 696.18 109.87 695.15 108.21 C 701.63 105.11 709.06 108.20 715.94 107.49 C 725.30 106.79 734.44 109.39 743.74 109.76 C 751.40 111.15 759.36 111.58 766.60 114.67 C 766.63 115.14 766.70 116.06 766.74 116.53 C 760.13 125.94 752.83 134.84 745.16 143.40 C 728.13 140.65 711.32 136.24 694.05 135.20 C 681.92 133.52 669.67 132.34 657.41 132.59 C 657.50 137.84 657.55 143.12 657.03 148.35 C 655.22 157.76 655.03 167.40 653.15 176.80 C 652.03 182.50 651.17 188.27 649.63 193.88 C 649.03 195.97 648.59 198.09 648.25 200.22 C 661.99 196.80 675.74 193.40 689.69 190.90 C 695.16 190.07 700.45 188.24 706.05 188.36 C 714.58 186.62 723.32 187.22 731.97 187.45 C 733.62 187.52 735.27 187.88 736.90 188.27 C 742.04 188.41 747.01 189.66 751.92 191.11 C 758.87 192.48 765.46 195.16 772.04 197.70 C 775.02 199.37 777.84 201.31 780.82 202.99 C 782.78 203.73 782.19 206.15 782.67 207.72 C 780.75 207.40 778.91 206.82 777.16 206.03 C 773.34 203.92 769.22 202.46 765.24 200.73 C 752.35 196.01 738.64 193.72 724.96 192.73 C 719.63 192.32 714.33 193.08 709.07 193.85 C 695.15 195.37 681.50 198.57 667.89 201.78 C 660.67 203.75 653.27 205.12 646.22 207.68 C 645.89 210.93 645.03 214.09 643.92 217.15 C 641.08 228.97 636.86 240.43 632.65 251.83 C 629.24 259.79 626.37 267.99 622.70 275.85 C 621.77 277.98 621.67 280.93 619.30 282.03 C 618.75 286.61 616.46 290.68 614.75 294.90 C 613.60 297.96 612.29 300.97 610.69 303.82 C 608.52 307.11 607.08 310.82 604.91 314.10 C 604.00 315.82 601.91 315.52 600.29 315.81 C 601.45 312.15 602.90 308.60 604.29 305.04 C 605.38 301.63 606.83 298.30 607.14 294.69 C 602.48 296.19 599.44 300.44 594.98 302.39 C 594.76 302.82 594.32 303.67 594.10 304.10 C 592.60 304.53 591.12 304.99 589.66 305.49 C 586.74 309.02 581.88 309.99 577.89 311.89 C 572.52 314.11 566.73 314.54 560.99 314.21 C 552.26 314.80 543.61 311.95 536.04 307.76 C 528.22 303.43 522.79 295.72 521.00 287.00 C 520.24 283.62 519.81 280.18 519.41 276.75 C 517.71 277.21 517.04 278.84 516.19 280.15 C 512.92 286.07 508.60 291.38 503.76 296.08 C 496.36 302.53 488.36 308.65 479.01 311.96 C 473.81 313.20 468.63 314.80 463.24 314.93 C 457.39 314.43 451.51 313.83 445.87 312.15 C 441.76 309.97 437.44 308.02 434.01 304.80 C 426.48 299.14 420.80 290.56 420.44 280.94 C 420.36 274.62 419.35 267.90 422.10 261.96 C 423.94 258.00 425.06 253.75 426.95 249.82 C 428.03 247.68 427.35 245.24 427.37 242.97 C 426.94 236.97 427.35 230.89 429.23 225.16 C 430.49 222.07 431.87 218.97 432.13 215.60 C 423.96 221.45 417.37 229.17 410.05 236.01 C 402.07 244.39 394.65 253.27 387.01 261.96 C 386.32 263.00 385.63 264.05 384.96 265.11 C 384.58 265.35 383.82 265.81 383.45 266.05 C 377.18 275.16 369.92 283.57 363.55 292.62 C 359.44 298.47 355.07 304.13 350.69 309.78 C 348.90 311.94 347.76 314.83 345.05 316.04 C 345.94 311.78 348.34 308.11 349.96 304.12 C 354.13 293.99 359.46 284.34 363.00 273.94 C 365.27 268.25 367.51 262.54 369.91 256.89 C 375.28 241.97 379.17 226.55 382.35 211.02 C 385.83 197.67 385.56 183.73 385.50 170.03 C 385.59 165.32 384.78 160.68 384.47 156.00 C 384.14 150.77 381.88 145.96 380.49 140.98 C 379.20 136.29 376.11 132.46 373.43 128.52 C 371.49 125.46 368.41 123.47 365.93 120.91 C 354.88 113.93 339.91 113.56 328.54 120.06 C 328.57 118.64 328.62 117.23 328.68 115.81 C 329.26 115.68 330.42 115.41 331.00 115.28 C 336.42 112.64 342.28 110.98 348.22 110.00 C 355.08 109.15 361.83 111.07 368.41 112.78 C 372.02 113.66 374.88 116.16 378.02 118.02 C 381.20 119.36 382.94 122.47 385.17 124.92 C 390.62 131.58 395.94 138.65 398.46 147.02 C 400.86 155.25 403.68 163.43 404.52 172.01 C 405.56 187.51 402.40 202.82 399.24 217.90 C 397.81 223.01 395.60 227.86 393.79 232.84 C 393.10 235.43 392.90 238.59 390.43 240.20 C 389.61 242.83 388.46 245.34 387.00 247.68 C 385.42 251.12 383.61 254.50 382.76 258.22 C 384.09 257.90 385.66 257.80 386.36 256.40 C 393.23 247.96 400.69 240.03 408.07 232.03 C 417.68 222.66 425.95 211.99 436.13 203.20 C 442.28 196.90 449.30 191.57 455.86 185.72 C 464.06 179.41 472.01 172.66 480.81 167.23 C 487.38 162.16 494.63 157.97 501.89 153.94 C 505.74 151.43 509.65 149.01 513.81 147.04 C 515.65 145.77 517.62 144.69 519.69 143.84 C 526.29 140.48 532.68 136.20 540.04 134.74 C 540.26 134.38 540.71 133.66 540.93 133.30 C 548.99 129.81 557.25 126.76 565.25 123.11 C 579.17 117.83 593.63 114.25 608.12 110.94 C 615.25 109.02 622.50 107.45 629.88 106.92 C 634.25 106.50 638.61 105.82 643.01 105.67 C 645.37 105.43 648.15 105.88 649.92 103.89 M 668.42 113.13 C 676.04 115.02 683.91 114.11 691.68 114.26 C 691.66 113.88 691.63 113.12 691.61 112.74 C 683.88 112.74 676.13 112.33 668.42 113.13 M 619.93 115.38 C 614.46 115.80 609.14 117.18 604.11 119.34 C 600.47 120.02 597.06 121.77 593.28 121.63 C 593.30 121.84 593.33 122.26 593.35 122.47 C 596.48 122.41 599.66 122.66 602.75 121.93 C 606.34 121.11 610.49 121.50 613.38 118.79 C 620.43 118.32 627.60 118.23 634.48 116.42 C 635.76 115.44 636.91 114.30 638.12 113.22 C 632.02 113.59 625.92 114.21 619.93 115.38 M 719.80 114.94 C 727.58 116.86 735.69 116.12 743.52 117.74 C 746.86 118.55 750.32 118.09 753.70 117.76 C 750.43 117.66 747.17 117.51 743.90 117.43 C 743.39 117.16 742.36 116.60 741.84 116.32 C 738.22 114.91 734.34 115.80 730.58 115.69 C 727.23 114.29 723.29 113.63 719.80 114.94 M 684.50 122.79 C 686.88 124.14 689.97 124.75 692.39 123.14 C 689.81 122.54 687.12 122.39 684.50 122.79 M 695.69 124.85 C 699.41 125.56 703.01 127.04 706.87 126.79 C 708.65 128.85 711.35 128.07 713.68 127.76 C 711.99 127.67 710.30 127.59 708.63 127.53 C 706.63 124.79 702.94 126.07 700.23 124.76 C 698.76 124.06 697.17 124.56 695.69 124.85 M 559.91 131.80 C 559.02 132.40 558.12 132.99 557.23 133.58 C 558.10 133.26 558.96 132.92 559.84 132.58 C 561.38 132.59 563.00 132.72 564.44 132.01 C 567.01 131.47 569.70 130.92 572.29 131.74 C 570.19 133.64 567.62 134.73 564.91 135.38 C 555.06 137.90 545.40 141.18 536.02 145.11 C 533.78 146.36 531.45 147.68 528.80 147.69 L 531.22 148.47 L 530.31 150.07 C 531.18 149.23 532.09 148.43 533.13 147.78 C 538.90 145.69 544.75 143.80 550.67 142.14 C 553.91 140.97 557.87 140.74 560.13 137.79 C 562.07 137.04 564.04 136.34 565.95 135.48 C 566.48 135.38 567.56 135.20 568.09 135.11 C 571.24 133.64 574.66 132.93 577.89 131.68 C 580.92 130.35 585.10 131.06 587.29 128.37 C 582.16 128.86 577.10 129.95 571.99 130.58 C 571.63 130.06 570.91 129.01 570.55 128.48 C 567.00 129.56 563.53 130.92 559.91 131.80 M 607.77 129.77 C 606.26 130.36 603.37 129.15 602.56 130.86 C 604.43 130.68 606.30 130.43 608.18 130.18 C 608.12 129.61 608.08 129.04 608.04 128.47 C 607.97 128.80 607.83 129.45 607.77 129.77 M 748.03 128.58 C 747.44 129.94 746.81 131.28 746.14 132.60 C 743.50 132.36 740.97 131.31 738.29 131.32 C 738.29 131.60 738.30 132.18 738.31 132.47 C 739.45 132.51 740.61 132.56 741.78 132.61 C 743.43 133.62 745.21 134.40 746.97 135.23 C 748.54 133.11 750.03 130.93 751.46 128.72 C 750.31 128.67 749.16 128.62 748.03 128.58 M 640.86 132.78 C 640.84 133.97 640.85 135.16 640.85 136.35 C 641.72 136.43 642.60 136.51 643.49 136.58 C 643.49 135.29 643.51 133.99 643.52 132.70 C 642.62 132.72 641.74 132.75 640.86 132.78 M 599.10 136.08 C 579.60 138.43 560.67 143.92 542.13 150.24 C 527.26 155.14 513.06 161.75 498.98 168.54 C 480.53 178.35 463.17 190.12 446.92 203.24 C 445.70 205.65 443.75 207.55 442.09 209.65 C 435.94 218.75 431.75 229.56 432.76 240.71 C 441.74 233.39 450.86 225.59 462.21 222.29 C 469.44 219.38 477.34 219.78 484.97 219.92 C 493.30 220.10 501.99 224.62 505.59 232.39 C 507.99 237.11 508.35 242.69 507.43 247.83 C 505.10 254.06 501.61 260.19 496.08 264.10 C 490.73 268.00 484.86 271.20 478.76 273.74 C 472.69 275.27 466.31 276.58 460.04 275.52 C 456.40 274.59 452.74 273.68 449.19 272.47 C 445.98 270.80 443.22 268.41 440.26 266.35 C 437.52 275.34 441.09 285.07 445.56 292.98 C 448.63 299.01 455.23 301.91 461.39 303.72 C 472.63 306.43 484.89 303.33 494.24 296.75 C 502.58 289.54 510.14 281.26 515.36 271.48 C 516.13 269.43 517.83 268.43 519.98 268.42 C 522.79 260.38 525.17 251.84 530.78 245.21 C 538.28 235.41 548.24 227.18 560.01 223.15 C 563.30 222.04 566.42 220.12 569.99 220.11 C 578.37 219.87 586.96 219.63 595.09 221.98 C 600.09 224.55 605.12 228.43 606.52 234.17 C 608.85 240.50 606.99 247.42 604.17 253.25 C 601.36 257.93 596.64 261.10 591.58 262.92 C 591.25 261.94 590.94 260.97 590.65 259.98 C 594.61 256.67 598.75 253.18 600.82 248.31 C 604.23 240.86 600.70 230.99 593.27 227.57 C 584.97 224.97 575.68 225.86 567.87 229.62 C 563.91 231.54 559.54 233.08 556.65 236.56 C 552.60 241.16 548.82 245.99 545.35 251.02 C 540.35 260.04 538.24 270.78 540.31 280.96 C 541.10 287.87 543.71 295.30 549.92 299.14 C 557.82 305.31 568.52 305.18 577.99 304.19 C 583.79 301.81 590.07 300.18 595.01 296.14 C 601.25 291.03 607.38 285.61 612.03 278.96 C 615.41 273.78 617.15 267.80 619.18 262.03 C 622.44 250.35 625.36 238.56 627.67 226.66 C 628.34 221.55 629.94 216.55 629.66 211.36 C 621.57 213.18 613.24 212.91 605.00 213.09 C 599.62 213.16 594.31 212.21 589.01 211.40 C 578.50 210.30 569.83 202.56 564.62 193.79 C 561.88 186.28 560.51 177.86 562.99 170.07 C 563.82 164.99 567.74 161.48 570.74 157.62 C 575.25 154.61 580.72 153.63 585.97 152.77 C 594.39 152.27 603.82 158.30 604.96 167.02 C 603.22 167.17 601.39 167.10 600.27 165.55 C 597.29 162.14 593.05 160.43 589.01 158.64 C 584.28 158.53 579.20 159.14 575.33 162.10 C 570.10 165.55 567.81 172.00 567.26 177.96 C 568.21 184.63 569.88 191.49 573.95 197.00 C 579.07 203.19 587.19 205.36 594.78 206.67 C 606.73 208.18 618.69 206.18 630.44 204.11 C 631.25 196.75 631.01 189.30 630.06 181.97 C 628.86 165.33 624.61 148.79 616.70 134.05 C 610.76 134.04 604.99 135.62 599.10 136.08 M 628.19 134.46 C 630.80 137.38 631.70 141.14 631.98 144.95 C 632.65 141.32 632.27 137.68 630.55 134.39 C 629.96 134.41 628.78 134.45 628.19 134.46 M 647.93 134.20 C 647.19 135.28 647.06 138.19 648.50 138.51 C 648.94 137.33 649.46 134.58 647.93 134.20 M 390.09 161.05 C 390.99 165.67 389.73 171.16 393.43 174.78 C 393.33 180.66 394.50 186.70 393.08 192.49 C 392.20 200.75 390.77 208.98 389.05 217.13 C 388.87 219.31 386.20 221.59 388.30 223.61 C 389.07 219.21 390.18 214.89 391.92 210.76 C 393.36 212.23 394.22 213.94 393.45 216.02 C 392.74 217.07 392.45 218.30 392.12 219.50 C 390.99 222.61 390.06 225.80 389.59 229.09 C 388.62 230.60 388.63 232.35 388.84 234.07 C 389.10 232.79 389.31 231.50 389.54 230.22 C 390.55 226.48 391.69 222.76 393.41 219.27 C 393.56 218.82 393.87 217.90 394.02 217.44 C 395.77 214.41 396.64 210.99 396.75 207.50 C 398.01 204.55 397.03 201.18 398.52 198.29 C 396.83 200.80 396.37 203.74 396.63 206.72 L 395.69 206.54 C 395.27 208.51 394.75 210.44 394.17 212.37 C 393.53 211.49 392.91 210.61 392.31 209.72 C 392.42 207.10 392.24 204.49 392.34 201.88 C 394.30 200.14 393.45 197.24 393.77 194.95 C 395.16 189.80 394.81 184.35 395.16 179.07 C 395.66 172.60 393.02 166.53 391.83 160.29 C 390.83 156.55 390.96 152.40 388.71 149.10 C 387.60 147.19 386.64 145.19 385.65 143.21 C 388.03 148.92 388.69 155.07 390.09 161.05 M 641.45 158.05 C 640.36 163.62 640.74 169.44 641.25 175.07 C 642.95 169.58 641.68 163.68 641.45 158.05 M 471.28 179.93 C 474.42 178.26 477.68 176.71 480.33 174.28 C 476.35 173.98 473.62 177.22 471.28 179.93 M 633.32 227.41 C 631.65 232.02 631.42 236.99 629.89 241.63 C 631.08 239.83 632.35 238.02 632.83 235.88 C 634.23 231.86 634.57 227.56 636.12 223.60 C 635.43 223.53 634.75 223.47 634.09 223.41 C 633.83 224.74 633.57 226.08 633.32 227.41 M 482.06 226.11 C 476.48 226.97 470.62 227.59 465.80 230.81 C 457.31 235.19 450.32 242.06 444.95 249.89 C 443.44 253.15 442.25 256.58 441.27 260.05 C 448.00 266.80 457.81 269.16 467.03 269.77 C 473.87 269.49 480.08 266.13 486.16 263.30 C 493.99 259.71 499.85 252.34 501.96 244.05 C 503.35 233.54 492.10 224.41 482.06 226.11 M 540.78 244.66 C 541.36 244.62 542.51 244.55 543.09 244.51 C 545.66 240.26 549.11 236.69 552.56 233.15 C 548.01 236.21 543.23 239.59 540.78 244.66 M 529.38 267.13 C 528.38 268.79 526.96 270.08 525.21 270.91 C 529.20 271.55 528.84 275.70 528.99 278.81 C 529.39 273.82 531.11 268.98 530.71 263.92 C 530.32 265.01 529.82 266.05 529.38 267.13 M 428.49 274.36 L 429.54 274.44 C 429.91 276.56 430.35 278.68 430.68 280.81 C 431.35 280.72 432.03 280.64 432.71 280.57 C 432.39 280.47 431.75 280.26 431.43 280.15 C 430.86 277.10 430.12 274.09 429.00 271.19 C 428.83 272.24 428.66 273.30 428.49 274.36 M 534.66 279.67 C 533.94 282.13 533.77 284.70 534.49 287.18 C 535.05 287.24 536.18 287.35 536.74 287.41 C 536.39 286.60 536.04 285.79 535.70 284.99 C 535.37 283.21 535.11 281.42 534.66 279.67 M 531.16 288.28 C 531.67 289.71 532.22 291.13 532.74 292.56 C 533.22 292.59 534.17 292.64 534.65 292.67 C 534.10 291.38 533.55 290.09 533.03 288.79 C 532.56 288.66 531.63 288.41 531.16 288.28 M 440.87 297.32 C 440.83 297.80 440.75 298.76 440.70 299.24 C 441.87 300.07 443.05 300.91 444.25 301.71 C 445.46 302.58 446.68 303.44 447.88 304.34 C 447.30 303.57 446.72 302.81 446.16 302.04 C 444.60 300.25 442.82 298.68 440.87 297.32 Z" />
<path fill="#0a281f" opacity="1.00" d=" M 153.99 108.03 C 154.68 108.14 156.07 108.37 156.77 108.48 C 159.27 111.62 162.12 114.78 163.12 118.78 C 166.56 122.05 168.95 126.38 168.87 131.24 C 164.72 128.80 161.54 124.86 159.82 120.39 C 158.48 115.99 155.35 112.43 153.99 108.03 Z" />
<path fill="#0a281f" opacity="1.00" d=" M 737.05 211.66 C 737.68 211.63 738.33 211.61 739.00 211.60 C 741.37 215.64 744.33 219.32 747.86 222.42 C 749.49 223.42 751.10 224.45 752.70 225.51 C 764.94 231.23 778.99 228.64 791.22 224.32 C 795.25 223.10 798.99 219.49 803.39 220.58 C 804.53 224.09 799.81 225.08 797.64 226.70 C 791.41 231.25 787.39 238.13 781.69 243.27 C 775.27 250.70 770.05 259.13 765.90 268.01 C 765.51 268.99 765.12 269.97 764.74 270.95 C 761.48 279.63 759.69 289.64 763.56 298.43 C 766.46 304.53 773.52 307.34 779.94 307.44 C 785.90 307.62 790.41 303.10 795.32 300.41 C 796.14 299.57 796.89 298.66 797.66 297.76 C 805.07 290.61 811.94 282.75 817.04 273.77 C 818.42 271.25 818.94 268.08 821.42 266.32 C 822.35 263.80 823.17 260.11 826.49 259.93 C 828.16 261.76 826.96 264.11 826.55 266.13 C 824.47 272.36 820.73 277.86 816.91 283.15 C 811.04 292.32 803.45 300.17 794.99 306.98 C 791.47 308.89 788.42 311.72 784.55 312.94 C 781.77 313.87 778.91 314.53 776.13 315.46 C 773.37 315.76 770.60 315.66 767.88 315.20 C 765.96 314.74 764.03 314.36 762.11 314.01 C 759.06 312.45 755.38 311.58 753.34 308.61 C 745.62 304.63 740.60 295.57 740.93 286.94 C 740.49 286.92 739.63 286.89 739.19 286.87 C 734.72 294.00 728.42 299.66 721.73 304.65 C 712.89 311.31 701.98 314.96 690.97 315.50 C 686.28 315.64 681.62 314.83 676.94 314.95 C 673.51 315.13 670.60 313.10 667.72 311.58 C 660.53 308.05 655.34 301.63 650.95 295.13 C 647.99 291.16 646.46 286.36 645.11 281.66 C 641.60 270.70 644.75 258.98 649.61 248.97 C 652.23 243.22 656.76 238.70 661.18 234.31 C 664.56 230.79 668.68 227.57 673.71 227.07 C 674.47 226.22 675.16 225.30 676.34 225.02 C 682.69 222.80 689.31 220.83 696.12 221.17 C 699.42 221.44 702.75 221.42 706.07 221.65 C 715.44 223.02 724.77 227.67 729.95 235.88 C 735.74 243.60 736.50 254.24 732.73 263.01 C 732.56 263.50 732.23 264.49 732.07 264.98 C 728.98 270.41 724.51 274.79 720.55 279.53 C 718.10 284.63 716.24 290.14 712.54 294.53 C 709.65 297.90 706.82 301.39 703.21 304.03 C 701.48 305.46 699.26 306.61 698.65 308.96 C 702.92 308.30 707.04 306.91 711.08 305.39 C 712.52 304.77 713.93 304.09 715.36 303.43 C 717.69 299.63 722.36 298.46 725.24 295.21 C 727.05 293.15 728.80 291.04 730.85 289.20 C 736.33 283.01 739.72 275.36 744.97 269.00 C 750.02 259.84 756.07 251.01 764.18 244.27 C 766.95 241.78 769.89 239.48 772.58 236.91 C 772.75 236.27 773.10 234.99 773.27 234.35 C 766.47 236.02 759.30 234.57 752.99 231.81 C 752.51 231.63 751.55 231.27 751.06 231.09 C 744.45 227.07 737.65 221.78 735.50 213.99 C 735.88 213.41 736.66 212.24 737.05 211.66 M 694.01 228.54 C 693.52 228.86 692.55 229.52 692.06 229.84 C 692.79 229.96 694.26 230.20 694.99 230.33 C 703.34 230.87 710.25 236.41 715.66 242.37 C 717.39 244.14 718.27 246.50 719.13 248.78 C 721.18 254.81 722.84 261.03 722.99 267.44 C 725.20 264.05 727.66 260.75 729.16 256.95 C 730.00 252.34 729.24 247.60 728.30 243.06 C 727.83 239.41 724.79 237.01 722.41 234.54 C 715.06 227.26 703.67 225.63 694.01 228.54 M 682.48 233.57 C 674.20 239.52 667.94 248.33 664.87 258.04 C 662.48 267.83 661.83 278.53 665.73 288.03 C 668.77 295.63 673.48 303.38 681.19 306.91 C 684.50 307.70 687.82 306.19 691.01 305.40 C 700.41 300.96 708.57 293.22 712.19 283.33 C 708.73 284.04 705.25 284.97 701.70 284.97 C 696.65 284.41 691.55 283.31 686.98 281.04 C 680.81 276.88 676.38 269.58 676.84 262.00 C 677.07 258.38 676.69 254.16 679.35 251.31 C 681.65 248.63 684.25 245.45 688.15 245.60 C 688.33 246.20 688.68 247.41 688.85 248.02 C 687.52 250.17 685.91 252.13 684.08 253.86 C 682.17 259.64 681.34 266.56 685.09 271.81 C 689.31 278.24 698.01 279.26 705.04 278.46 C 709.03 277.45 714.10 276.98 716.36 273.02 C 717.88 265.73 717.11 257.90 713.90 251.14 C 709.89 241.73 700.03 236.36 690.53 234.02 C 690.60 232.75 690.90 231.48 690.77 230.21 C 687.74 229.78 685.09 232.29 682.48 233.57 M 764.28 255.91 C 761.62 260.11 758.56 264.05 756.08 268.37 C 756.65 268.42 757.77 268.53 758.33 268.59 C 760.64 264.78 762.71 260.84 764.61 256.81 C 764.92 255.82 765.28 254.85 765.38 253.81 C 765.10 254.33 764.56 255.38 764.28 255.91 M 649.93 282.13 C 650.62 277.27 650.72 272.34 650.51 267.44 L 651.59 267.55 C 651.62 265.27 651.68 262.98 651.31 260.73 C 649.40 267.69 648.35 274.99 649.93 282.13 M 656.31 263.18 C 656.02 265.83 655.67 268.48 655.40 271.13 C 655.96 272.02 656.54 272.91 657.12 273.80 C 657.49 270.28 657.68 266.75 657.83 263.21 C 657.45 263.21 656.69 263.19 656.31 263.18 M 657.12 294.84 C 659.18 297.31 661.36 299.71 663.88 301.75 C 662.58 299.15 661.07 296.68 659.60 294.18 C 658.77 294.39 657.94 294.61 657.12 294.84 M 754.46 296.58 C 754.28 300.71 757.54 303.94 760.72 306.11 C 759.25 302.96 757.44 299.99 756.12 296.78 C 755.71 296.73 754.88 296.63 754.46 296.58 Z" />
<path fill="#0a281f" opacity="1.00" d=" M 7.06 308.15 C 14.38 303.36 23.86 304.76 31.73 307.31 C 32.60 311.58 32.90 315.93 32.91 320.29 C 31.46 320.17 30.00 320.03 28.55 319.89 C 27.19 316.47 26.15 312.26 22.53 310.53 C 18.67 308.32 13.28 308.85 10.28 312.23 C 7.74 315.24 8.73 319.92 11.83 322.13 C 16.83 325.71 23.17 326.51 28.54 329.40 C 33.31 331.69 37.00 336.60 37.02 342.00 C 37.17 346.58 36.53 351.75 33.11 355.13 C 29.56 358.42 24.96 360.90 20.02 360.93 C 13.77 361.22 7.04 360.87 1.62 357.39 C 0.91 353.39 1.24 349.29 1.18 345.24 C 2.43 345.19 3.67 345.13 4.91 345.09 C 7.03 349.02 8.66 353.96 13.17 355.77 C 18.21 358.28 25.10 357.13 28.42 352.38 C 30.61 349.27 29.66 344.63 26.50 342.54 C 20.03 338.20 11.61 337.54 5.60 332.38 C 2.42 329.71 1.47 325.51 0.23 321.76 L 0.00 323.07 L 0.00 319.59 C 1.49 315.37 3.01 310.61 7.06 308.15 Z" />
<path fill="#0a281f" opacity="1.00" d=" M 65.39 305.10 C 67.06 305.13 68.72 305.18 70.39 305.24 C 75.19 316.88 80.19 328.43 84.88 340.11 C 87.08 345.45 88.72 351.10 91.95 355.96 C 93.52 356.18 95.09 356.41 96.66 356.64 C 96.83 357.14 97.16 358.13 97.32 358.63 C 99.43 357.40 101.61 356.28 103.99 355.68 C 107.07 348.49 105.72 340.54 106.21 332.96 C 106.04 325.68 108.36 318.24 106.08 311.10 C 103.77 310.61 101.47 310.06 99.16 309.58 C 99.15 308.44 99.15 307.30 99.14 306.17 C 105.42 306.46 112.00 305.64 118.09 306.91 C 124.58 318.48 129.08 331.09 135.19 342.87 C 141.18 331.60 145.36 319.48 150.93 308.01 C 151.57 306.42 153.54 306.56 154.93 306.44 C 160.26 306.27 165.59 306.14 170.93 306.18 C 170.63 307.34 170.33 308.51 170.00 309.67 C 167.53 310.43 163.83 310.25 162.65 312.98 C 162.62 318.97 162.91 324.98 163.15 330.97 C 164.09 338.23 163.44 345.58 164.31 352.84 C 164.62 356.84 169.87 356.12 172.44 358.08 C 174.62 356.84 177.09 356.36 179.40 355.45 C 181.48 353.56 182.16 350.67 183.20 348.16 C 188.43 333.73 194.10 319.48 199.57 305.14 C 201.23 305.14 202.90 305.15 204.57 305.17 C 210.63 319.81 216.88 334.38 222.64 349.15 C 223.52 351.24 224.30 353.43 225.68 355.26 C 227.52 356.45 229.89 356.58 231.96 357.30 C 231.87 358.40 231.78 359.52 231.68 360.63 C 222.53 359.39 213.30 360.05 204.13 360.15 C 204.18 359.47 204.28 358.11 204.33 357.43 C 206.99 356.89 209.58 356.05 212.11 355.07 C 210.45 350.72 208.91 346.32 206.64 342.25 C 201.36 342.58 195.99 341.74 190.78 342.64 C 188.97 346.64 187.46 350.79 186.57 355.09 C 189.08 355.95 191.62 356.69 194.20 357.33 C 193.86 358.42 194.13 360.43 192.45 360.28 C 184.62 359.33 176.78 360.30 168.97 360.51 C 160.70 359.14 152.31 360.30 144.00 359.67 C 144.93 356.17 149.01 356.30 151.84 355.36 C 152.85 343.15 151.99 330.84 151.01 318.65 C 147.02 325.76 144.41 333.53 140.93 340.88 C 137.84 347.47 135.35 354.30 132.80 361.11 C 131.77 360.87 130.74 360.60 129.72 360.31 C 124.09 346.29 117.63 332.58 111.00 319.00 C 110.54 328.33 110.91 337.68 110.38 347.01 C 110.22 349.36 110.53 351.71 110.81 354.05 C 113.08 355.74 115.80 356.59 118.36 357.71 C 119.01 358.77 118.31 359.85 118.01 360.89 C 111.50 360.38 104.98 359.42 98.47 360.52 C 89.72 360.12 80.91 359.29 72.16 360.38 C 70.23 360.79 70.02 358.73 70.01 357.35 C 72.47 356.79 74.93 356.22 77.40 355.72 C 76.77 350.76 74.67 345.84 71.99 341.71 C 67.02 341.47 62.04 341.67 57.07 341.45 C 55.27 345.95 53.17 350.39 52.49 355.24 C 54.91 355.98 57.36 356.66 59.81 357.30 C 59.83 358.01 59.87 359.44 59.90 360.16 C 52.96 360.17 45.95 359.15 39.08 360.70 C 39.04 359.56 39.01 358.42 38.97 357.29 C 40.92 356.81 42.90 356.41 44.79 355.71 C 46.56 354.76 47.24 352.70 47.97 350.96 C 50.23 344.72 52.77 338.59 54.90 332.31 C 57.92 323.06 62.22 314.30 65.39 305.10 M 64.34 321.56 C 63.02 325.18 61.76 328.83 60.30 332.40 C 59.85 333.67 59.38 334.93 58.91 336.20 C 62.71 336.73 66.52 337.11 70.36 337.08 C 69.88 335.16 69.33 333.27 68.76 331.38 C 68.40 330.38 68.06 329.37 67.72 328.37 C 66.60 326.09 65.49 323.81 64.34 321.56 M 198.48 321.52 C 196.70 326.44 195.13 331.45 192.89 336.18 C 196.69 336.69 200.51 337.09 204.35 337.12 C 204.19 335.89 204.02 334.67 203.85 333.46 C 201.93 329.54 200.80 325.25 198.48 321.52 Z" />
<path fill="#0a281f" opacity="1.00" d=" M 234.34 327.94 C 236.31 315.36 248.14 304.97 260.95 305.11 C 267.86 305.01 274.92 304.95 281.54 307.20 C 282.79 311.30 284.02 315.43 284.50 319.71 C 283.14 319.79 281.79 319.86 280.44 319.92 C 276.21 314.45 270.43 308.93 262.93 309.53 C 255.74 309.00 250.47 315.57 248.79 321.92 C 246.53 330.64 246.10 340.49 250.21 348.74 C 252.59 354.01 258.47 356.82 264.01 357.09 C 271.49 356.80 277.27 351.18 281.30 345.37 C 282.56 345.31 283.82 345.26 285.08 345.21 C 284.82 349.43 283.96 353.58 282.74 357.63 C 275.50 361.76 266.99 360.95 259.00 360.85 C 250.08 360.66 241.84 355.15 237.26 347.66 C 233.75 341.74 233.68 334.58 234.34 327.94 Z" />
<path fill="#0a281f" opacity="1.00" d=" M 542.41 350.86 C 541.66 345.70 543.53 339.36 548.91 337.53 C 552.01 336.46 554.15 339.01 556.26 340.76 C 557.58 342.46 559.41 341.21 559.81 339.52 C 560.45 339.41 561.09 339.31 561.75 339.21 C 559.70 341.90 558.14 344.98 558.11 348.44 C 558.91 348.54 560.51 348.75 561.31 348.86 C 565.45 354.12 562.14 362.02 556.39 364.55 C 552.20 364.72 547.99 364.42 544.03 362.95 C 543.54 364.91 542.50 366.65 541.12 368.12 C 541.92 364.48 542.94 360.90 543.83 357.29 C 547.63 360.40 551.95 363.29 557.03 363.51 C 559.31 360.83 561.00 357.62 560.35 353.99 C 559.82 353.59 558.77 352.79 558.24 352.39 C 553.83 352.37 549.42 352.98 545.02 352.66 C 544.09 352.14 543.25 351.48 542.41 350.86 M 546.99 348.43 C 549.74 348.88 552.53 348.36 555.29 348.15 C 554.42 344.77 551.88 342.14 549.13 340.17 C 545.49 340.14 543.81 346.37 546.99 348.43 Z" />
<path fill="#0a281f" opacity="1.00" d=" M 696.94 340.42 C 699.03 336.82 703.48 337.06 707.00 337.94 C 709.07 339.94 711.58 341.79 712.22 344.79 C 713.43 350.42 713.09 357.18 708.65 361.40 C 703.32 365.70 694.39 359.63 690.16 365.97 C 688.35 364.28 690.58 362.40 690.94 360.68 C 692.30 360.26 693.65 359.82 695.03 359.40 C 695.02 353.52 695.01 347.64 695.04 341.77 C 693.01 340.87 690.97 340.02 688.99 339.05 C 691.66 339.34 694.32 339.78 696.94 340.42 M 698.66 340.21 C 697.10 346.55 697.75 353.23 698.31 359.68 C 701.29 359.99 704.30 360.19 707.31 360.31 C 711.14 354.70 710.93 346.03 705.48 341.52 C 703.75 339.54 700.94 340.31 698.66 340.21 Z" />
<path fill="#0a281f" opacity="1.00" d=" M 585.75 339.03 C 587.30 337.59 589.33 337.32 591.36 337.18 C 592.12 338.07 592.90 338.96 593.68 339.86 C 593.10 340.23 591.94 340.97 591.37 341.34 C 589.96 339.62 587.84 339.19 585.75 339.03 Z" />
<path fill="#0a281f" opacity="1.00" d=" M 762.40 339.93 C 763.13 338.03 765.52 338.00 767.11 337.23 C 767.16 344.64 766.77 352.06 767.29 359.47 L 769.58 360.57 C 767.95 361.62 766.18 362.43 764.35 363.02 C 764.19 355.73 765.34 348.48 765.01 341.20 C 764.36 340.88 763.05 340.25 762.40 339.93 Z" />
<path fill="#0a281f" opacity="1.00" d=" M 585.28 339.47 C 585.40 339.36 585.64 339.14 585.75 339.03 C 585.64 339.14 585.40 339.36 585.28 339.47 Z" />
<path fill="#0a281f" opacity="1.00" d=" M 582.50 348.89 C 582.66 345.56 582.13 341.66 585.28 339.47 C 585.44 342.36 585.35 345.27 585.15 348.16 C 586.19 348.72 587.28 349.22 588.41 349.64 C 587.55 349.79 585.83 350.10 584.97 350.25 C 584.66 354.67 585.59 359.29 584.51 363.59 C 584.02 363.96 583.04 364.69 582.55 365.06 C 582.53 360.75 582.73 356.45 582.68 352.14 C 582.39 351.63 581.82 350.60 581.54 350.08 L 582.50 348.89 Z" />
<path fill="#0a281f" opacity="1.00" d=" M 593.73 349.03 C 594.93 348.08 596.13 347.12 597.33 346.15 C 597.10 350.23 602.02 348.35 604.61 348.79 C 604.61 349.67 604.61 350.55 604.62 351.44 C 602.28 351.44 599.93 351.46 597.59 351.49 C 597.56 354.58 597.76 357.69 598.53 360.71 C 600.68 360.72 602.84 360.70 605.01 360.67 C 602.57 363.13 598.22 363.86 595.53 361.44 C 594.96 358.27 595.25 355.02 595.07 351.83 C 594.46 351.60 593.25 351.13 592.64 350.90 C 592.91 350.44 593.46 349.50 593.73 349.03 Z" />
<path fill="#0a281f" opacity="1.00" d=" M 839.17 348.23 C 841.13 347.61 843.07 348.30 844.97 348.84 C 844.29 349.79 843.73 350.83 843.31 351.92 C 841.70 350.94 840.10 348.46 838.00 349.75 C 836.50 350.35 837.45 352.10 837.45 353.25 C 839.54 353.38 841.71 353.25 843.77 353.84 C 845.46 354.45 845.74 356.32 846.34 357.79 C 845.27 359.20 844.34 360.91 842.61 361.62 C 842.49 359.83 842.41 358.05 842.28 356.27 C 838.96 356.36 834.92 356.49 833.17 353.04 C 834.55 350.73 836.56 348.98 839.17 348.23 Z" />
<path fill="#0a281f" opacity="1.00" d=" M 567.06 351.94 C 568.65 350.22 571.03 349.50 573.22 348.86 C 576.03 348.24 577.91 350.95 579.58 352.73 C 580.02 356.07 579.23 359.33 576.46 361.43 C 573.66 363.11 570.28 363.21 567.44 361.57 C 565.71 358.70 565.09 354.85 567.06 351.94 M 569.53 357.24 C 570.61 360.21 573.91 360.64 576.66 360.75 C 576.63 357.59 577.49 353.38 574.17 351.50 C 570.63 349.59 567.19 354.30 569.53 357.24 Z" />
<path fill="#0a281f" opacity="1.00" d=" M 618.48 349.52 C 619.11 349.16 619.75 348.79 620.39 348.43 C 623.72 351.00 624.79 355.19 627.07 358.53 C 627.61 358.73 628.69 359.14 629.22 359.35 C 630.49 356.90 631.35 354.26 632.09 351.61 C 631.85 351.00 631.37 349.77 631.14 349.15 C 631.85 349.13 633.27 349.09 633.98 349.07 C 633.59 352.45 631.99 355.45 630.43 358.41 C 629.64 359.94 628.92 361.54 627.85 362.91 C 624.47 362.72 624.67 357.96 621.92 357.12 C 619.62 358.33 618.48 361.02 616.74 362.91 C 616.29 362.76 615.39 362.46 614.94 362.31 C 613.05 359.12 611.28 355.83 608.84 353.02 C 607.97 352.13 607.53 350.97 607.23 349.80 C 607.84 349.69 609.05 349.47 609.66 349.36 C 612.20 350.93 613.52 353.62 614.55 356.31 C 615.48 357.82 616.65 359.10 618.08 360.17 C 619.68 357.46 622.94 352.99 618.61 350.97 C 618.58 350.61 618.51 349.88 618.48 349.52 Z" />
<path fill="#0a281f" opacity="1.00" d=" M 637.58 350.58 C 641.58 348.16 646.40 348.38 650.33 350.86 C 650.41 353.89 650.43 356.92 650.55 359.96 C 652.00 360.35 653.11 361.32 653.97 362.51 C 651.25 363.03 648.59 362.46 645.99 361.73 C 642.90 362.80 639.69 363.24 636.50 362.34 C 636.53 356.96 643.07 357.34 646.34 354.96 C 647.17 352.17 643.79 351.54 641.83 351.16 C 640.97 352.31 640.13 353.46 639.27 354.60 C 638.30 353.75 637.34 352.92 636.39 352.09 C 636.68 351.72 637.28 350.96 637.58 350.58 M 641.15 359.34 C 640.35 361.21 643.06 361.43 644.20 361.84 C 644.98 360.27 645.78 358.71 646.60 357.16 C 644.63 357.46 642.67 358.02 641.15 359.34 Z" />
<path fill="#0a281f" opacity="1.00" d=" M 663.88 348.95 C 664.74 348.88 665.62 348.82 666.50 348.77 C 666.48 349.67 666.46 350.57 666.46 351.48 C 664.46 351.50 662.47 351.52 660.49 351.59 C 660.05 354.68 660.27 357.81 659.94 360.90 C 659.33 362.39 657.56 362.51 656.30 363.16 C 656.10 359.48 656.54 355.77 655.99 352.13 C 655.66 351.84 655.00 351.25 654.66 350.95 C 654.61 350.62 654.50 349.95 654.45 349.62 C 656.47 349.29 658.65 348.64 660.49 349.98 C 661.75 350.96 662.86 349.58 663.88 348.95 Z" />
<path fill="#0a281f" opacity="1.00" d=" M 720.87 348.77 C 724.14 347.57 727.86 352.27 730.20 348.76 C 735.62 348.83 735.81 355.89 738.94 359.02 C 741.56 359.00 742.10 355.72 743.46 354.06 L 744.32 355.60 C 744.95 356.71 743.20 357.72 742.79 358.71 C 741.25 360.50 739.80 363.17 737.02 362.59 C 734.83 359.01 733.10 355.17 730.88 351.62 C 729.59 351.52 728.31 351.48 727.04 351.49 C 725.78 352.16 724.72 353.17 723.35 353.62 L 722.90 353.58 C 723.75 352.58 723.24 349.98 721.57 350.84 C 720.24 351.93 721.57 353.57 722.90 353.58 L 722.51 354.64 C 718.68 354.87 720.63 358.57 721.88 360.42 C 724.65 360.49 727.34 359.79 729.99 359.03 C 728.08 360.94 725.94 363.11 722.98 362.81 C 720.40 363.28 718.92 360.99 717.38 359.43 C 717.36 357.04 717.05 354.60 717.64 352.26 C 718.55 350.95 719.75 349.90 720.87 348.77 Z" />
<path fill="#0a281f" opacity="1.00" d=" M 750.51 352.66 C 751.82 351.17 753.08 349.34 755.14 348.85 C 757.72 348.34 760.04 349.96 762.36 350.83 C 760.61 351.80 758.82 352.77 756.75 352.63 C 757.19 351.32 755.45 349.87 754.59 351.33 C 753.60 352.76 755.82 353.26 756.75 352.63 C 755.31 353.92 754.16 355.48 752.89 356.92 C 753.89 358.10 754.89 359.30 755.89 360.50 C 757.15 360.36 758.43 360.20 759.71 360.03 C 760.85 359.76 761.97 359.38 763.11 359.05 C 761.24 361.08 758.97 363.26 755.95 362.80 C 753.41 363.17 751.96 360.84 750.57 359.19 C 750.55 357.01 750.54 354.83 750.51 352.66 Z" />
<path fill="#0a281f" opacity="1.00" d=" M 773.20 351.40 C 775.46 349.68 778.25 348.76 781.09 348.72 C 783.12 350.62 785.58 352.88 784.92 356.00 C 784.62 362.15 774.84 365.81 771.70 359.66 C 771.23 357.00 770.47 353.11 773.20 351.40 M 774.33 353.89 C 773.46 358.05 777.65 360.99 781.44 360.80 C 782.04 358.25 782.80 355.34 781.07 353.04 C 779.69 350.30 774.75 350.60 774.33 353.89 Z" />
<path fill="#0a281f" opacity="1.00" d=" M 786.15 348.65 C 788.72 348.72 791.68 348.42 793.15 351.08 C 794.08 350.31 795.01 349.53 795.96 348.75 C 798.10 348.89 800.72 348.93 801.94 351.08 C 803.77 354.47 803.54 359.74 799.90 361.86 C 797.64 363.40 794.74 362.58 792.21 362.71 C 792.16 366.14 792.17 369.58 792.32 373.01 C 794.03 373.21 795.75 373.44 797.47 373.70 C 794.66 374.49 791.82 375.22 788.97 375.82 L 790.16 376.00 L 788.21 376.00 C 789.88 372.20 789.31 367.98 789.38 363.95 C 789.30 360.28 789.61 356.60 789.19 352.95 C 788.52 351.30 787.18 350.06 786.15 348.65 M 793.56 352.56 C 791.50 354.51 792.51 357.58 792.55 360.06 C 794.67 360.64 796.80 361.16 798.95 361.62 C 800.48 358.79 800.27 355.18 798.17 352.71 C 797.07 351.39 794.65 351.22 793.56 352.56 Z" />
<path fill="#0a281f" opacity="1.00" d=" M 807.52 352.25 C 809.44 350.39 811.79 347.68 814.80 349.05 C 816.82 350.01 818.95 350.40 821.08 349.47 C 823.84 347.79 826.77 352.24 828.93 348.96 C 829.79 348.89 830.67 348.82 831.56 348.76 C 831.52 349.68 831.50 350.59 831.48 351.52 C 829.51 351.51 827.54 351.51 825.58 351.56 C 825.20 354.82 825.18 358.10 825.27 361.38 C 823.96 361.95 822.67 362.54 821.39 363.14 C 821.29 359.18 821.31 355.22 821.31 351.27 C 817.25 351.52 813.07 352.77 810.24 355.83 C 809.97 357.87 811.65 359.23 812.76 360.68 C 815.23 360.24 817.67 359.62 820.07 358.83 C 817.97 362.07 814.39 363.32 810.65 362.75 C 809.60 361.58 808.55 360.41 807.51 359.25 C 807.46 356.91 807.47 354.58 807.52 352.25 M 811.48 352.54 C 812.74 353.78 814.76 351.64 813.61 350.39 C 812.34 349.20 810.25 351.28 811.48 352.54 Z" />
<path fill="#0a281f" opacity="1.00" d=" M 673.34 349.37 C 674.66 349.32 676.14 349.35 677.26 350.19 C 678.24 351.02 676.97 352.64 675.90 352.10 C 675.03 351.20 674.13 350.34 673.20 349.53 L 673.34 349.37 Z" />
<path fill="#0a281f" opacity="1.00" d=" M 743.64 348.27 C 747.62 349.29 745.50 353.21 744.32 355.60 C 743.12 353.30 743.42 350.74 743.64 348.27 Z" />
<path fill="#0a281f" opacity="1.00" d=" M 673.34 350.26 C 673.31 350.08 673.24 349.71 673.20 349.53 L 673.48 349.81 L 673.34 350.26 Z" />
<path fill="#0a281f" opacity="1.00" d=" M 671.99 362.39 C 667.65 359.82 667.81 353.11 671.01 349.72 L 673.34 350.26 C 673.04 351.07 672.44 352.67 672.14 353.48 C 672.99 353.17 674.70 352.55 675.55 352.24 C 674.16 353.44 672.72 354.60 671.48 355.96 C 671.13 357.84 673.04 359.07 673.82 360.59 C 676.32 360.30 678.76 359.70 681.20 359.06 C 679.02 361.78 675.51 363.88 671.99 362.39 Z" />
<path fill="#0a281f" opacity="1.00" d=" M 675.55 352.24 C 675.64 352.20 675.81 352.13 675.90 352.10 C 675.81 352.13 675.64 352.20 675.55 352.24 Z" />
<path fill="#0a281f" opacity="1.00" d=" M 834.84 358.73 C 837.43 359.64 839.48 361.73 842.29 362.16 C 839.44 363.08 835.43 363.64 833.76 360.45 L 834.84 358.73 Z" />
<path fill="#0a281f" opacity="1.00" d=" M 842.29 362.16 C 842.37 362.02 842.53 361.76 842.61 361.62 C 842.53 361.76 842.37 362.02 842.29 362.16 Z" />
</g>
<g id="#c2b11dff">
<path fill="#c2b11d" opacity="1.00" d=" M 129.54 48.61 C 138.09 45.80 146.89 43.21 155.97 43.18 C 162.67 43.12 169.38 43.03 176.08 43.36 C 184.32 44.01 192.31 46.34 200.12 48.93 C 203.54 50.06 206.84 51.48 210.12 52.95 C 218.50 57.24 226.67 62.04 233.97 68.01 C 237.79 71.51 241.43 75.19 245.24 78.71 C 259.00 94.05 268.87 112.82 273.49 132.91 C 276.29 145.15 278.14 157.74 277.42 170.32 C 275.15 193.07 265.48 214.70 251.35 232.56 C 229.78 260.01 197.74 279.48 162.95 284.02 C 154.71 285.33 146.31 284.71 138.00 284.81 C 130.81 284.95 123.76 283.46 116.69 282.39 C 110.57 281.06 104.51 279.44 98.58 277.41 C 93.19 275.57 87.88 273.50 82.62 271.33 C 74.79 267.70 67.12 263.73 59.74 259.25 C 57.64 257.57 54.00 256.67 54.20 253.37 C 55.58 253.35 56.95 253.35 58.33 253.37 C 59.26 253.93 60.20 254.50 61.13 255.06 C 64.12 256.50 67.25 257.61 70.40 258.65 C 74.88 260.11 79.49 261.05 84.08 262.08 C 86.74 262.36 89.45 262.41 92.07 263.02 C 103.34 264.08 114.73 263.07 125.78 260.72 C 127.39 260.37 129.00 260.01 130.61 259.63 C 136.44 258.11 142.26 256.40 147.66 253.68 C 151.39 252.25 155.02 250.55 158.49 248.56 C 173.64 239.92 187.17 227.97 195.66 212.57 C 198.71 207.85 199.61 201.67 204.33 198.15 C 211.85 191.03 217.99 182.36 221.70 172.64 C 223.42 168.24 224.31 163.55 225.24 158.93 C 225.63 150.44 226.18 141.70 223.63 133.47 C 219.63 118.98 209.16 107.16 197.13 98.58 C 182.84 87.98 166.43 80.83 151.10 71.94 C 146.50 69.19 142.68 65.04 137.47 63.38 C 133.48 61.92 129.14 62.62 125.21 63.87 C 120.66 66.20 116.95 69.79 112.50 72.29 C 103.19 77.52 93.67 82.36 84.37 87.61 C 83.79 87.59 82.62 87.54 82.04 87.52 C 92.73 69.53 110.11 56.03 129.54 48.61 Z" />
</g>
</svg>
