<?xml version="1.0" encoding="UTF-8" ?>
<!DOCTYPE svg PUBLIC "-//W3C//DTD SVG 1.1//EN" "http://www.w3.org/Graphics/SVG/1.1/DTD/svg11.dtd">
<svg width="594pt" height="595pt" viewBox="0 0 594 595" version="1.1" xmlns="http://www.w3.org/2000/svg">
<g id="#6e7666ff">
<path fill="#6e7666" opacity="1.00" d=" M 456.35 72.04 C 459.03 72.13 461.66 74.29 461.45 77.15 C 461.67 84.54 459.89 91.81 458.66 99.06 C 458.27 102.09 456.30 104.47 454.72 106.96 C 454.25 109.04 456.12 110.86 455.75 112.97 C 455.45 116.06 454.41 118.99 453.58 121.96 C 452.31 126.10 451.30 130.46 448.65 133.98 C 447.29 135.73 446.66 137.85 446.59 140.05 C 446.22 147.64 442.36 154.39 439.10 161.06 C 431.72 174.95 423.88 188.71 414.02 201.02 C 410.76 205.25 406.53 208.64 403.54 213.10 C 406.76 212.84 410.02 212.11 413.24 212.65 C 418.65 214.88 422.71 220.26 423.61 226.02 C 424.32 229.70 421.51 232.57 420.21 235.74 C 421.59 236.18 423.01 235.89 424.29 235.28 C 442.29 226.45 462.34 223.18 481.98 220.17 C 490.02 219.15 498.46 218.21 506.24 221.11 C 508.58 221.69 510.67 219.50 513.07 219.59 C 519.34 219.44 525.67 219.55 531.87 220.62 C 533.76 220.70 534.72 222.50 535.91 223.69 C 539.23 223.30 542.49 221.96 545.88 222.52 C 552.73 223.58 559.64 224.60 566.26 226.72 C 568.61 227.39 571.36 229.21 570.79 232.05 C 571.25 235.78 566.74 236.68 563.95 236.17 C 554.49 234.93 545.22 232.40 536.11 229.68 C 529.82 230.72 523.41 230.59 517.05 230.36 C 514.01 230.41 511.32 228.95 508.55 227.94 C 504.03 228.46 499.58 229.72 494.99 229.51 C 473.52 228.79 451.65 230.25 431.15 237.09 C 427.68 237.98 426.25 241.54 423.79 243.77 C 421.63 245.94 418.75 247.41 417.09 250.04 C 415.58 253.36 414.74 256.95 413.35 260.32 C 410.88 265.75 412.94 271.82 414.96 277.05 C 415.51 279.29 417.89 279.74 419.80 280.30 C 428.54 282.53 437.44 284.19 446.09 286.76 C 450.29 287.66 451.62 292.16 453.50 295.44 C 456.06 300.08 457.43 305.22 458.67 310.34 C 460.78 318.56 464.45 326.46 470.11 332.84 C 472.41 335.08 472.86 338.26 472.98 341.32 C 477.37 344.48 483.50 345.77 486.06 350.98 C 488.06 354.59 491.35 357.35 493.03 361.14 C 494.70 366.51 492.76 372.22 490.06 376.91 C 488.45 372.18 487.51 366.87 483.85 363.18 C 480.50 359.79 476.27 357.42 472.94 354.01 C 470.56 351.75 468.70 348.98 466.12 346.93 C 464.06 345.75 461.50 345.79 459.49 344.53 C 456.92 340.49 456.35 335.57 455.06 331.04 C 452.45 321.24 451.19 311.08 447.71 301.52 C 444.35 301.37 440.91 301.34 437.67 300.30 C 430.27 297.93 424.21 292.51 416.52 290.90 C 416.30 295.43 416.18 300.06 417.63 304.43 C 420.35 312.58 420.11 321.39 418.94 329.80 C 418.19 333.45 417.49 337.84 413.97 339.90 C 408.76 342.78 402.23 341.09 397.08 344.17 C 392.21 347.13 387.73 350.68 383.17 354.10 C 388.30 359.82 395.62 363.96 398.58 371.33 C 399.30 380.53 394.50 389.04 389.07 396.11 C 381.83 405.88 375.43 416.31 370.42 427.39 C 368.03 432.46 368.93 438.63 365.23 443.15 C 367.16 446.53 369.71 449.85 369.75 453.93 C 369.89 459.66 372.41 465.58 370.09 471.17 C 368.32 476.61 363.45 480.36 358.09 481.96 C 359.81 479.03 361.98 476.29 363.04 473.02 C 363.75 470.10 362.46 467.20 361.63 464.45 C 359.33 458.02 357.02 451.58 355.53 444.91 C 354.91 441.53 350.87 439.65 351.14 436.05 C 351.55 431.19 354.56 427.09 357.19 423.16 C 364.08 413.19 372.35 404.28 379.73 394.68 C 382.86 390.70 385.16 386.13 386.62 381.28 C 380.07 376.26 376.25 368.79 372.65 361.57 C 358.54 369.39 345.77 379.36 332.94 389.09 C 325.20 394.77 316.58 399.13 308.89 404.90 C 313.22 410.58 317.98 415.91 322.68 421.29 C 324.99 424.28 327.78 427.88 327.03 431.88 C 321.27 446.28 310.57 457.90 299.61 468.58 C 287.55 480.54 273.72 490.93 263.88 504.96 C 261.33 508.60 260.03 512.91 257.80 516.72 C 256.24 517.61 254.59 518.39 253.26 519.62 C 255.46 523.40 258.92 527.33 257.80 532.03 C 256.99 536.01 259.17 539.95 258.09 543.93 C 257.03 550.74 251.50 556.55 244.66 557.69 C 247.32 554.29 250.98 550.87 250.54 546.14 C 248.57 535.55 244.02 525.39 244.30 514.45 C 243.60 514.07 242.90 513.71 242.20 513.35 C 243.16 510.45 244.04 507.41 246.02 505.01 C 252.67 496.88 262.02 491.66 269.42 484.30 C 282.11 472.01 295.07 459.92 306.41 446.34 C 308.89 443.50 310.99 440.37 312.97 437.18 C 305.98 429.34 303.46 418.98 299.10 409.69 C 295.05 411.40 291.12 413.37 287.08 415.09 C 282.72 417.00 277.79 416.65 273.34 418.28 C 268.70 419.99 264.13 422.18 259.15 422.64 C 255.74 422.95 252.55 421.18 249.15 421.43 C 240.45 422.52 231.35 426.08 222.69 423.32 C 216.24 420.04 208.85 422.85 202.12 420.87 C 198.98 420.07 196.82 417.47 194.58 415.32 C 190.59 415.14 186.54 415.24 182.63 414.33 C 178.72 413.44 176.64 409.49 173.01 408.04 C 169.07 406.29 164.86 404.41 162.49 400.61 C 159.83 396.93 159.89 392.25 159.33 387.95 C 158.95 384.82 156.88 382.16 156.60 379.03 C 156.57 374.76 158.81 370.95 159.52 366.83 C 159.18 363.46 156.64 360.51 157.21 356.99 C 157.34 351.01 161.17 345.90 161.55 340.00 C 160.82 329.32 168.18 320.68 172.75 311.69 C 173.79 308.99 173.03 305.94 174.17 303.27 C 176.32 298.63 179.82 294.83 183.14 291.01 C 186.34 287.36 187.43 282.33 190.92 278.89 C 194.04 275.73 197.19 272.60 199.99 269.15 C 195.40 265.03 190.49 261.25 186.07 256.93 C 183.13 254.10 181.23 250.41 178.42 247.48 C 176.19 247.47 174.05 248.23 171.94 248.88 C 159.45 253.08 147.54 258.79 135.72 264.57 C 126.04 269.47 116.10 273.95 107.01 279.95 C 100.81 283.73 94.43 288.28 86.93 288.66 C 82.45 287.23 78.59 284.30 74.13 282.75 C 73.43 292.14 73.69 301.56 73.92 310.97 C 73.19 301.34 73.51 291.69 73.82 282.05 C 67.62 278.32 61.91 273.83 55.74 270.04 C 51.52 268.03 46.61 269.37 42.82 271.72 C 44.97 264.64 53.51 262.27 60.11 263.38 C 64.12 263.70 66.91 267.28 70.90 267.62 C 72.38 267.89 73.98 268.11 75.09 269.25 C 77.34 271.17 79.40 273.30 81.50 275.38 C 86.24 270.87 93.13 272.61 98.90 270.80 C 113.13 266.56 126.01 259.01 139.06 252.10 C 154.36 244.29 170.43 236.72 187.85 235.68 C 192.06 236.05 194.73 239.95 196.81 243.22 C 200.40 249.57 203.80 256.04 208.00 262.02 C 211.05 259.73 214.01 257.33 216.93 254.87 C 230.53 243.92 245.66 235.09 259.52 224.50 C 262.85 221.79 267.17 219.92 269.47 216.17 C 264.42 209.97 258.34 204.29 255.88 196.41 C 251.25 196.32 246.58 196.67 242.15 198.10 C 228.73 202.24 215.90 208.29 202.13 211.29 C 198.47 211.88 194.33 212.97 190.91 211.04 C 188.85 208.78 187.72 205.66 184.95 204.09 C 177.95 199.91 172.11 194.15 165.45 189.50 C 161.21 186.69 156.04 188.93 151.59 189.96 C 154.36 185.21 159.48 182.10 165.02 182.17 C 171.22 181.42 176.08 185.89 181.59 187.84 C 185.41 189.19 187.59 192.80 190.13 195.71 C 196.43 194.50 202.66 197.02 208.97 196.19 C 220.81 194.90 232.50 192.42 243.86 188.84 C 251.49 186.31 259.83 185.33 267.66 187.56 C 269.99 188.24 271.36 190.43 272.66 192.32 C 275.79 197.36 277.58 203.07 280.15 208.39 C 285.03 205.73 289.58 202.49 293.96 199.09 C 298.98 195.32 299.49 188.20 304.25 184.23 C 306.93 181.96 310.69 182.52 313.90 182.92 C 319.77 183.89 325.58 185.51 331.00 188.01 C 334.97 189.84 338.31 192.73 342.06 194.94 C 344.95 196.66 348.27 197.37 351.49 198.21 C 351.64 187.41 346.48 176.10 351.62 165.75 C 340.79 156.45 327.33 150.82 316.40 141.66 C 313.23 139.47 315.55 135.40 314.67 132.34 C 313.27 128.88 310.97 125.85 309.63 122.36 C 307.51 117.48 306.76 111.91 303.40 107.63 C 300.80 104.65 297.38 102.57 294.41 100.00 C 299.14 99.57 304.20 99.34 308.55 101.59 C 311.89 103.23 313.32 106.89 315.39 109.74 C 316.88 112.05 318.95 113.98 320.15 116.47 C 321.25 120.15 321.07 124.10 322.37 127.73 C 324.76 129.59 328.07 130.53 329.32 133.58 C 333.82 142.12 341.26 148.66 349.30 153.78 C 354.72 157.18 359.27 161.76 363.34 166.65 C 364.94 168.38 364.77 170.85 364.75 173.03 C 364.40 182.41 362.34 191.66 362.20 201.05 C 361.78 203.52 364.11 204.92 365.76 206.24 C 368.37 208.11 370.99 210.10 374.05 211.20 C 378.03 211.86 382.10 211.37 386.13 211.51 C 393.08 212.39 397.66 205.66 404.36 205.10 C 418.12 189.07 426.79 169.37 433.62 149.56 C 435.03 145.20 436.16 140.63 438.98 136.91 C 441.37 134.13 440.58 130.34 440.91 126.99 C 442.36 120.62 444.69 114.45 447.36 108.50 C 449.43 105.76 448.56 102.25 448.97 99.08 C 449.81 91.68 450.24 84.19 451.99 76.93 C 452.43 74.64 453.98 72.58 456.35 72.04 M 206.51 277.41 C 203.90 282.05 203.80 289.10 208.32 292.64 C 212.25 295.96 217.56 296.71 221.85 299.39 C 226.74 302.33 226.11 311.53 220.18 312.81 C 217.34 312.98 213.85 313.67 211.48 311.66 C 208.87 309.87 209.17 306.50 208.84 303.74 C 207.11 304.06 205.38 304.38 203.64 304.69 C 203.60 309.99 206.57 315.82 212.05 317.13 C 216.87 317.92 222.77 318.31 226.52 314.56 C 231.11 310.60 231.37 303.00 227.87 298.28 C 223.55 292.81 215.30 293.21 210.83 287.99 C 209.40 284.97 209.37 280.43 212.38 278.29 C 214.64 276.44 217.97 276.82 220.62 277.45 C 224.05 278.50 224.72 282.30 225.24 285.34 C 226.81 285.24 228.38 285.13 229.96 285.03 C 230.21 280.08 227.64 274.88 222.78 273.18 C 217.20 271.80 209.91 271.99 206.51 277.41 M 371.56 278.77 C 369.62 282.52 370.27 286.90 370.09 290.97 C 370.19 297.26 369.47 303.61 370.41 309.86 C 372.21 318.98 385.67 321.11 391.45 314.67 C 392.40 316.24 393.42 317.82 395.43 318.11 C 395.62 310.07 395.72 302.01 395.39 293.96 C 391.57 293.90 387.75 293.90 383.93 293.97 C 383.84 295.47 383.76 296.97 383.69 298.48 C 385.98 298.49 388.28 298.51 390.58 298.54 C 390.58 302.14 390.96 305.81 390.21 309.36 C 388.02 315.80 377.05 315.59 375.36 308.95 C 374.67 304.33 375.20 299.65 375.09 295.00 C 375.19 290.69 374.64 286.32 375.49 282.07 C 377.35 276.96 384.69 276.10 388.57 279.34 C 390.79 281.13 390.43 284.24 390.98 286.75 C 392.51 286.53 394.06 286.32 395.61 286.11 C 395.40 283.75 395.61 281.20 394.42 279.06 C 390.08 270.77 376.10 270.54 371.56 278.77 M 244.90 276.05 C 241.06 289.77 236.52 303.30 233.00 317.10 C 234.67 317.07 236.34 317.05 238.02 317.04 C 238.97 313.80 239.86 310.56 240.63 307.28 C 244.93 306.98 249.24 306.97 253.55 307.18 C 254.45 310.46 255.33 313.75 256.18 317.04 C 257.91 317.05 259.63 317.06 261.36 317.07 C 257.73 303.72 253.63 290.49 249.98 277.14 C 249.37 275.77 249.41 273.79 247.85 273.10 C 245.94 272.16 245.37 274.84 244.90 276.05 M 265.97 274.81 C 265.86 288.89 265.92 302.98 265.97 317.07 C 267.54 317.06 269.12 317.05 270.69 317.05 C 270.92 309.38 270.83 301.71 270.90 294.05 C 270.61 293.13 270.03 291.29 269.74 290.37 C 270.26 290.42 270.95 290.39 271.02 291.09 C 273.41 299.93 277.02 308.38 279.97 317.05 C 280.73 317.04 282.25 317.04 283.01 317.04 C 286.40 308.20 289.80 299.35 292.61 290.30 C 292.38 299.22 291.85 308.14 292.33 317.06 C 293.91 317.05 295.49 317.04 297.08 317.03 C 297.67 302.56 297.36 288.07 297.28 273.59 C 296.49 273.63 294.91 273.70 294.12 273.73 C 290.14 285.19 285.65 296.46 281.58 307.89 C 277.46 296.75 273.49 285.55 269.28 274.46 C 269.13 272.40 265.19 272.57 265.97 274.81 M 305.96 273.66 C 305.91 288.12 305.92 302.58 305.95 317.04 C 311.94 316.92 317.95 317.42 323.92 316.86 C 333.05 313.82 333.99 299.80 326.54 294.42 C 327.85 293.03 329.25 291.69 330.27 290.07 C 333.23 284.30 330.47 275.88 323.90 274.17 C 317.98 273.21 311.93 273.28 305.96 273.66 M 337.32 273.57 C 337.09 283.70 337.07 293.83 336.96 303.97 C 336.84 308.03 337.41 312.67 340.86 315.33 C 344.32 318.63 349.47 318.47 353.88 317.88 C 358.85 316.83 362.61 312.06 362.50 306.98 C 362.71 295.97 362.43 284.96 362.74 273.96 C 361.06 273.94 359.38 273.93 357.70 273.93 C 357.44 284.99 357.80 296.06 357.53 307.12 C 357.63 309.87 355.64 312.22 353.18 313.21 C 348.76 315.55 342.02 312.39 342.13 307.07 C 341.95 295.90 342.15 284.73 342.07 273.56 C 340.48 273.57 338.90 273.57 337.32 273.57 Z" />
<path fill="#6e7666" opacity="1.00" d=" M 311.10 278.10 C 314.92 278.15 318.86 277.57 322.60 278.56 C 327.78 280.80 327.76 289.28 322.57 291.51 C 318.82 292.40 314.90 291.83 311.08 291.90 C 311.05 287.30 311.05 282.70 311.10 278.10 Z" />
<path fill="#6e7666" opacity="1.00" d=" M 242.03 302.95 C 243.88 297.01 245.33 290.95 247.37 285.06 C 248.95 291.01 250.56 296.95 252.43 302.82 C 248.96 302.92 245.50 302.96 242.03 302.95 Z" />
<path fill="#6e7666" opacity="1.00" d=" M 310.83 296.58 C 314.83 296.70 319.03 295.94 322.87 297.32 C 326.22 298.77 326.48 302.86 326.28 306.00 C 326.59 309.45 323.67 313.00 320.13 312.92 C 317.01 313.13 313.89 312.88 310.78 312.73 C 311.09 307.35 311.09 301.96 310.83 296.58 Z" />
</g>
<g id="#78c22cfe">
<path fill="#78c22c" opacity="1.00" d=" M 221.87 86.83 C 269.71 69.73 323.39 69.76 371.21 86.89 C 396.64 95.89 420.21 109.75 440.91 126.99 C 440.58 130.34 441.37 134.13 438.98 136.91 C 436.16 140.63 435.03 145.20 433.62 149.56 C 426.79 169.37 418.12 189.07 404.36 205.10 C 397.66 205.66 393.08 212.39 386.13 211.51 C 382.10 211.37 378.03 211.86 374.05 211.20 C 370.99 210.10 368.37 208.11 365.76 206.24 C 364.11 204.92 361.78 203.52 362.20 201.05 C 362.34 191.66 364.40 182.41 364.75 173.03 C 364.77 170.85 364.94 168.38 363.34 166.65 C 359.27 161.76 354.72 157.18 349.30 153.78 C 341.26 148.66 333.82 142.12 329.32 133.58 C 328.07 130.53 324.76 129.59 322.37 127.73 C 321.07 124.10 321.25 120.15 320.15 116.47 C 318.95 113.98 316.88 112.05 315.39 109.74 C 313.32 106.89 311.89 103.23 308.55 101.59 C 304.20 99.34 299.14 99.57 294.41 100.00 C 297.38 102.57 300.80 104.65 303.40 107.63 C 306.76 111.91 307.51 117.48 309.63 122.36 C 310.97 125.85 313.27 128.88 314.67 132.34 C 315.55 135.40 313.23 139.47 316.40 141.66 C 327.33 150.82 340.79 156.45 351.62 165.75 C 346.48 176.10 351.64 187.41 351.49 198.21 C 348.27 197.37 344.95 196.66 342.06 194.94 C 338.31 192.73 334.97 189.84 331.00 188.01 C 325.58 185.51 319.77 183.89 313.90 182.92 C 310.69 182.52 306.93 181.96 304.25 184.23 C 299.49 188.20 298.98 195.32 293.96 199.09 C 289.58 202.49 285.03 205.73 280.15 208.39 C 277.58 203.07 275.79 197.36 272.66 192.32 C 271.36 190.43 269.99 188.24 267.66 187.56 C 259.83 185.33 251.49 186.31 243.86 188.84 C 232.50 192.42 220.81 194.90 208.97 196.19 C 202.66 197.02 196.43 194.50 190.13 195.71 C 187.59 192.80 185.41 189.19 181.59 187.84 C 176.08 185.89 171.22 181.42 165.02 182.17 C 159.48 182.10 154.36 185.21 151.59 189.96 C 156.04 188.93 161.21 186.69 165.45 189.50 C 172.11 194.15 177.95 199.91 184.95 204.09 C 187.72 205.66 188.85 208.78 190.91 211.04 C 194.33 212.97 198.47 211.88 202.13 211.29 C 215.90 208.29 228.73 202.24 242.15 198.10 C 246.58 196.67 251.25 196.32 255.88 196.41 C 258.34 204.29 264.42 209.97 269.47 216.17 C 267.17 219.92 262.85 221.79 259.52 224.50 C 245.66 235.09 230.53 243.92 216.93 254.87 C 214.01 257.33 211.05 259.73 208.00 262.02 C 203.80 256.04 200.40 249.57 196.81 243.22 C 194.73 239.95 192.06 236.05 187.85 235.68 C 170.43 236.72 154.36 244.29 139.06 252.10 C 126.01 259.01 113.13 266.56 98.90 270.80 C 93.13 272.61 86.24 270.87 81.50 275.38 C 79.40 273.30 77.34 271.17 75.09 269.25 C 79.79 232.33 93.74 196.60 115.62 166.46 C 141.95 130.03 179.47 101.81 221.87 86.83 Z" />
<path fill="#78c22c" opacity="1.00" d=" M 446.59 140.05 C 446.66 137.85 447.29 135.73 448.65 133.98 C 474.33 157.99 494.24 188.06 506.24 221.11 C 498.46 218.21 490.02 219.15 481.98 220.17 C 462.34 223.18 442.29 226.45 424.29 235.28 C 423.01 235.89 421.59 236.18 420.21 235.74 C 421.51 232.57 424.32 229.70 423.61 226.02 C 422.71 220.26 418.65 214.88 413.24 212.65 C 410.02 212.11 406.76 212.84 403.54 213.10 C 406.53 208.64 410.76 205.25 414.02 201.02 C 423.88 188.71 431.72 174.95 439.10 161.06 C 442.36 154.39 446.22 147.64 446.59 140.05 Z" />
<path fill="#78c22c" opacity="1.00" d=" M 494.99 229.51 C 499.58 229.72 504.03 228.46 508.55 227.94 C 522.27 270.03 523.03 316.22 510.81 358.77 C 500.78 393.56 482.14 425.87 456.92 451.87 C 429.14 480.80 393.36 501.97 354.63 512.39 C 323.17 520.87 289.88 522.37 257.80 516.72 C 260.03 512.91 261.33 508.60 263.88 504.96 C 273.72 490.93 287.55 480.54 299.61 468.58 C 310.57 457.90 321.27 446.28 327.03 431.88 C 327.78 427.88 324.99 424.28 322.68 421.29 C 317.98 415.91 313.22 410.58 308.89 404.90 C 316.58 399.13 325.20 394.77 332.94 389.09 C 345.77 379.36 358.54 369.39 372.65 361.57 C 376.25 368.79 380.07 376.26 386.62 381.28 C 385.16 386.13 382.86 390.70 379.73 394.68 C 372.35 404.28 364.08 413.19 357.19 423.16 C 354.56 427.09 351.55 431.19 351.14 436.05 C 350.87 439.65 354.91 441.53 355.53 444.91 C 357.02 451.58 359.33 458.02 361.63 464.45 C 362.46 467.20 363.75 470.10 363.04 473.02 C 361.98 476.29 359.81 479.03 358.09 481.96 C 363.45 480.36 368.32 476.61 370.09 471.17 C 372.41 465.58 369.89 459.66 369.75 453.93 C 369.71 449.85 367.16 446.53 365.23 443.15 C 368.93 438.63 368.03 432.46 370.42 427.39 C 375.43 416.31 381.83 405.88 389.07 396.11 C 394.50 389.04 399.30 380.53 398.58 371.33 C 395.62 363.96 388.30 359.82 383.17 354.10 C 387.73 350.68 392.21 347.13 397.08 344.17 C 402.23 341.09 408.76 342.78 413.97 339.90 C 417.49 337.84 418.19 333.45 418.94 329.80 C 420.11 321.39 420.35 312.58 417.63 304.43 C 416.18 300.06 416.30 295.43 416.52 290.90 C 424.21 292.51 430.27 297.93 437.67 300.30 C 440.91 301.34 444.35 301.37 447.71 301.52 C 451.19 311.08 452.45 321.24 455.06 331.04 C 456.35 335.57 456.92 340.49 459.49 344.53 C 461.50 345.79 464.06 345.75 466.12 346.93 C 468.70 348.98 470.56 351.75 472.94 354.01 C 476.27 357.42 480.50 359.79 483.85 363.18 C 487.51 366.87 488.45 372.18 490.06 376.91 C 492.76 372.22 494.70 366.51 493.03 361.14 C 491.35 357.35 488.06 354.59 486.06 350.98 C 483.50 345.77 477.37 344.48 472.98 341.32 C 472.86 338.26 472.41 335.08 470.11 332.84 C 464.45 326.46 460.78 318.56 458.67 310.34 C 457.43 305.22 456.06 300.08 453.50 295.44 C 451.62 292.16 450.29 287.66 446.09 286.76 C 437.44 284.19 428.54 282.53 419.80 280.30 C 417.89 279.74 415.51 279.29 414.96 277.05 C 412.94 271.82 410.88 265.75 413.35 260.32 C 414.74 256.95 415.58 253.36 417.09 250.04 C 418.75 247.41 421.63 245.94 423.79 243.77 C 426.25 241.54 427.68 237.98 431.15 237.09 C 451.65 230.25 473.52 228.79 494.99 229.51 Z" />
<path fill="#78c22c" opacity="1.00" d=" M 171.94 248.88 C 174.05 248.23 176.19 247.47 178.42 247.48 C 181.23 250.41 183.13 254.10 186.07 256.93 C 190.49 261.25 195.40 265.03 199.99 269.15 C 197.19 272.60 194.04 275.73 190.92 278.89 C 187.43 282.33 186.34 287.36 183.14 291.01 C 179.82 294.83 176.32 298.63 174.17 303.27 C 173.03 305.94 173.79 308.99 172.75 311.69 C 168.18 320.68 160.82 329.32 161.55 340.00 C 161.17 345.90 157.34 351.01 157.21 356.99 C 156.64 360.51 159.18 363.46 159.52 366.83 C 158.81 370.95 156.57 374.76 156.60 379.03 C 156.88 382.16 158.95 384.82 159.33 387.95 C 159.89 392.25 159.83 396.93 162.49 400.61 C 164.86 404.41 169.07 406.29 173.01 408.04 C 176.64 409.49 178.72 413.44 182.63 414.33 C 186.54 415.24 190.59 415.14 194.58 415.32 C 196.82 417.47 198.98 420.07 202.12 420.87 C 208.85 422.85 216.24 420.04 222.69 423.32 C 231.35 426.08 240.45 422.52 249.15 421.43 C 252.55 421.18 255.74 422.95 259.15 422.64 C 264.13 422.18 268.70 419.99 273.34 418.28 C 277.79 416.65 282.72 417.00 287.08 415.09 C 291.12 413.37 295.05 411.40 299.10 409.69 C 303.46 418.98 305.98 429.34 312.97 437.18 C 310.99 440.37 308.89 443.50 306.41 446.34 C 295.07 459.92 282.11 472.01 269.42 484.30 C 262.02 491.66 252.67 496.88 246.02 505.01 C 244.04 507.41 243.16 510.45 242.20 513.35 C 197.60 502.41 156.81 476.91 127.01 442.03 C 95.74 405.64 76.59 358.91 73.92 310.97 C 73.69 301.56 73.43 292.14 74.13 282.75 C 78.59 284.30 82.45 287.23 86.93 288.66 C 94.43 288.28 100.81 283.73 107.01 279.95 C 116.10 273.95 126.04 269.47 135.72 264.57 C 147.54 258.79 159.45 253.08 171.94 248.88 Z" />
</g>
<g id="#8f9786ff">
<path fill="#8f9786" opacity="1.00" d=" M 536.00 126.07 C 534.52 124.21 534.02 121.81 533.56 119.55 C 538.12 124.70 541.88 130.47 545.70 136.17 C 566.33 167.55 580.76 202.95 588.26 239.73 C 591.45 254.84 592.82 270.24 594.00 285.61 L 594.00 311.04 C 592.79 326.44 591.38 341.86 588.17 357.00 C 577.08 411.23 550.66 462.37 512.20 502.24 C 507.12 508.49 500.71 513.41 495.03 519.07 C 463.94 547.08 426.86 568.44 386.94 581.04 C 362.24 589.27 336.34 593.32 310.41 595.00 L 283.70 595.00 C 277.17 594.18 270.58 594.12 264.06 593.24 C 201.70 586.40 141.89 558.84 95.97 516.13 C 87.56 507.46 78.49 499.40 70.88 490.00 C 53.12 469.22 38.28 445.95 26.98 421.06 C 13.35 392.17 6.18 360.66 2.33 329.08 C 4.59 343.85 6.73 358.70 11.07 373.05 C 19.17 398.97 29.76 424.21 43.90 447.45 C 67.71 486.51 100.79 519.80 139.55 544.10 C 159.86 556.40 181.40 566.78 204.08 573.94 C 241.29 586.19 280.98 590.27 319.97 587.17 C 363.35 583.59 405.91 570.20 443.46 548.16 C 446.79 546.09 450.14 544.07 453.52 542.07 C 489.88 518.60 521.17 487.26 544.09 450.51 C 577.45 397.41 593.02 333.41 587.76 270.93 C 584.57 228.03 571.46 186.00 550.22 148.62 C 545.71 140.96 541.20 133.28 536.00 126.07 Z" />
<path fill="#8f9786" opacity="1.00" d=" M 206.51 277.41 C 209.91 271.99 217.20 271.80 222.78 273.18 C 227.64 274.88 230.21 280.08 229.96 285.03 C 228.38 285.13 226.81 285.24 225.24 285.34 C 224.72 282.30 224.05 278.50 220.62 277.45 C 217.97 276.82 214.64 276.44 212.38 278.29 C 209.37 280.43 209.40 284.97 210.83 287.99 C 215.30 293.21 223.55 292.81 227.87 298.28 C 231.37 303.00 231.11 310.60 226.52 314.56 C 222.77 318.31 216.87 317.92 212.05 317.13 C 206.57 315.82 203.60 309.99 203.64 304.69 C 205.38 304.38 207.11 304.06 208.84 303.74 C 209.17 306.50 208.87 309.87 211.48 311.66 C 213.85 313.67 217.34 312.98 220.18 312.81 C 226.11 311.53 226.74 302.33 221.85 299.39 C 217.56 296.71 212.25 295.96 208.32 292.64 C 203.80 289.10 203.90 282.05 206.51 277.41 Z" />
<path fill="#8f9786" opacity="1.00" d=" M 371.56 278.77 C 376.10 270.54 390.08 270.77 394.42 279.06 C 395.61 281.20 395.40 283.75 395.61 286.11 C 394.06 286.32 392.51 286.53 390.98 286.75 C 390.43 284.24 390.79 281.13 388.57 279.34 C 384.69 276.10 377.35 276.96 375.49 282.07 C 374.64 286.32 375.19 290.69 375.09 295.00 C 375.20 299.65 374.67 304.33 375.36 308.95 C 377.05 315.59 388.02 315.80 390.21 309.36 C 390.96 305.81 390.58 302.14 390.58 298.54 C 388.28 298.51 385.98 298.49 383.69 298.48 C 383.76 296.97 383.84 295.47 383.93 293.97 C 387.75 293.90 391.57 293.90 395.39 293.96 C 395.72 302.01 395.62 310.07 395.43 318.11 C 393.42 317.82 392.40 316.24 391.45 314.67 C 385.67 321.11 372.21 318.98 370.41 309.86 C 369.47 303.61 370.19 297.26 370.09 290.97 C 370.27 286.90 369.62 282.52 371.56 278.77 Z" />
<path fill="#8f9786" opacity="1.00" d=" M 244.90 276.05 C 245.37 274.84 245.94 272.16 247.85 273.10 C 249.41 273.79 249.37 275.77 249.98 277.14 C 253.63 290.49 257.73 303.72 261.36 317.07 C 259.63 317.06 257.91 317.05 256.18 317.04 C 255.33 313.75 254.45 310.46 253.55 307.18 C 249.24 306.97 244.93 306.98 240.63 307.28 C 239.86 310.56 238.97 313.80 238.02 317.04 C 236.34 317.05 234.67 317.07 233.00 317.10 C 236.52 303.30 241.06 289.77 244.90 276.05 M 242.03 302.95 C 245.50 302.96 248.96 302.92 252.43 302.82 C 250.56 296.95 248.95 291.01 247.37 285.06 C 245.33 290.95 243.88 297.01 242.03 302.95 Z" />
<path fill="#8f9786" opacity="1.00" d=" M 265.97 274.81 C 265.19 272.57 269.13 272.40 269.28 274.46 C 273.49 285.55 277.46 296.75 281.58 307.89 C 285.65 296.46 290.14 285.19 294.12 273.73 C 294.91 273.70 296.49 273.63 297.28 273.59 C 297.36 288.07 297.67 302.56 297.08 317.03 C 295.49 317.04 293.91 317.05 292.33 317.06 C 291.85 308.14 292.38 299.22 292.61 290.30 C 289.80 299.35 286.40 308.20 283.01 317.04 C 282.25 317.04 280.73 317.04 279.97 317.05 C 277.02 308.38 273.41 299.93 271.02 291.09 C 270.95 290.39 270.26 290.42 269.74 290.37 C 270.03 291.29 270.61 293.13 270.90 294.05 C 270.83 301.71 270.92 309.38 270.69 317.05 C 269.12 317.05 267.54 317.06 265.97 317.07 C 265.92 302.98 265.86 288.89 265.97 274.81 Z" />
<path fill="#8f9786" opacity="1.00" d=" M 305.96 273.66 C 311.93 273.28 317.98 273.21 323.90 274.17 C 330.47 275.88 333.23 284.30 330.27 290.07 C 329.25 291.69 327.85 293.03 326.54 294.42 C 333.99 299.80 333.05 313.82 323.92 316.86 C 317.95 317.42 311.94 316.92 305.95 317.04 C 305.92 302.58 305.91 288.12 305.96 273.66 M 311.10 278.10 C 311.05 282.70 311.05 287.30 311.08 291.90 C 314.90 291.83 318.82 292.40 322.57 291.51 C 327.76 289.28 327.78 280.80 322.60 278.56 C 318.86 277.57 314.92 278.15 311.10 278.10 M 310.83 296.58 C 311.09 301.96 311.09 307.35 310.78 312.73 C 313.89 312.88 317.01 313.13 320.13 312.92 C 323.67 313.00 326.59 309.45 326.28 306.00 C 326.48 302.86 326.22 298.77 322.87 297.32 C 319.03 295.94 314.83 296.70 310.83 296.58 Z" />
<path fill="#8f9786" opacity="1.00" d=" M 337.32 273.57 C 338.90 273.57 340.48 273.57 342.07 273.56 C 342.15 284.73 341.95 295.90 342.13 307.07 C 342.02 312.39 348.76 315.55 353.18 313.21 C 355.64 312.22 357.63 309.87 357.53 307.12 C 357.80 296.06 357.44 284.99 357.70 273.93 C 359.38 273.93 361.06 273.94 362.74 273.96 C 362.43 284.96 362.71 295.97 362.50 306.98 C 362.61 312.06 358.85 316.83 353.88 317.88 C 349.47 318.47 344.32 318.63 340.86 315.33 C 337.41 312.67 336.84 308.03 336.96 303.97 C 337.07 293.83 337.09 283.70 337.32 273.57 Z" />
</g>
</svg>
